%TF.GenerationSoftware,KiCad,Pcbnew,7.0.10*%
%TF.CreationDate,2024-02-18T21:52:23+13:00*%
%TF.ProjectId,dvi-sock,6476692d-736f-4636-9b2e-6b696361645f,rev?*%
%TF.SameCoordinates,Original*%
%TF.FileFunction,Copper,L1,Top*%
%TF.FilePolarity,Positive*%
%FSLAX46Y46*%
G04 Gerber Fmt 4.6, Leading zero omitted, Abs format (unit mm)*
G04 Created by KiCad (PCBNEW 7.0.10) date 2024-02-18 21:52:23*
%MOMM*%
%LPD*%
G01*
G04 APERTURE LIST*
G04 Aperture macros list*
%AMRoundRect*
0 Rectangle with rounded corners*
0 $1 Rounding radius*
0 $2 $3 $4 $5 $6 $7 $8 $9 X,Y pos of 4 corners*
0 Add a 4 corners polygon primitive as box body*
4,1,4,$2,$3,$4,$5,$6,$7,$8,$9,$2,$3,0*
0 Add four circle primitives for the rounded corners*
1,1,$1+$1,$2,$3*
1,1,$1+$1,$4,$5*
1,1,$1+$1,$6,$7*
1,1,$1+$1,$8,$9*
0 Add four rect primitives between the rounded corners*
20,1,$1+$1,$2,$3,$4,$5,0*
20,1,$1+$1,$4,$5,$6,$7,0*
20,1,$1+$1,$6,$7,$8,$9,0*
20,1,$1+$1,$8,$9,$2,$3,0*%
G04 Aperture macros list end*
%TA.AperFunction,SMDPad,CuDef*%
%ADD10R,4.600000X0.530000*%
%TD*%
%TA.AperFunction,SMDPad,CuDef*%
%ADD11RoundRect,0.135000X-0.226274X-0.035355X-0.035355X-0.226274X0.226274X0.035355X0.035355X0.226274X0*%
%TD*%
%TA.AperFunction,ComponentPad*%
%ADD12R,1.700000X1.700000*%
%TD*%
%TA.AperFunction,ComponentPad*%
%ADD13O,1.700000X1.700000*%
%TD*%
%TA.AperFunction,ComponentPad*%
%ADD14RoundRect,0.381000X-0.381000X-1.019000X0.381000X-1.019000X0.381000X1.019000X-0.381000X1.019000X0*%
%TD*%
%TA.AperFunction,ComponentPad*%
%ADD15C,0.700000*%
%TD*%
%TA.AperFunction,SMDPad,CuDef*%
%ADD16RoundRect,0.135000X0.185000X-0.135000X0.185000X0.135000X-0.185000X0.135000X-0.185000X-0.135000X0*%
%TD*%
%TA.AperFunction,SMDPad,CuDef*%
%ADD17RoundRect,0.135000X0.035355X-0.226274X0.226274X-0.035355X-0.035355X0.226274X-0.226274X0.035355X0*%
%TD*%
%TA.AperFunction,ComponentPad*%
%ADD18RoundRect,0.381000X0.381000X1.019000X-0.381000X1.019000X-0.381000X-1.019000X0.381000X-1.019000X0*%
%TD*%
%TA.AperFunction,ComponentPad*%
%ADD19RoundRect,0.381000X1.019000X-0.381000X1.019000X0.381000X-1.019000X0.381000X-1.019000X-0.381000X0*%
%TD*%
%TA.AperFunction,ViaPad*%
%ADD20C,0.600000*%
%TD*%
%TA.AperFunction,Conductor*%
%ADD21C,0.130000*%
%TD*%
%TA.AperFunction,Conductor*%
%ADD22C,0.250000*%
%TD*%
%TA.AperFunction,Conductor*%
%ADD23C,0.200000*%
%TD*%
G04 APERTURE END LIST*
D10*
%TO.P,U1,19 HEAC+*%
%TO.N,N/C*%
X164426455Y-89024222D03*
%TO.P,U1,17 DDC/CEC GND*%
%TO.N,GND*%
X164426455Y-87964222D03*
%TO.P,U1,15 DDC*%
%TO.N,N/C*%
X164426455Y-86994222D03*
%TO.P,U1,13 CEC*%
X164426455Y-86024222D03*
%TO.P,U1,11 TMDS CLK GND*%
%TO.N,GND*%
X164426455Y-85054222D03*
%TO.P,U1,9 TMDS Channel 0-*%
%TO.N,/D0-*%
X164426455Y-84084222D03*
%TO.P,U1,7 TMDS Channel 0+*%
%TO.N,/D0+*%
X164426455Y-83114222D03*
%TO.P,U1,5 TMDS Channel 1 GND*%
%TO.N,GND*%
X164426455Y-82144222D03*
%TO.P,U1,3 TMDS Channel 2-*%
%TO.N,/D2-*%
X164426455Y-81174222D03*
%TO.P,U1,1 TMDS Channel 2+*%
%TO.N,/D2+*%
X164426455Y-80204222D03*
%TD*%
D11*
%TO.P,R2,1*%
%TO.N,/PICO_D2-*%
X156039376Y-79439376D03*
%TO.P,R2,2*%
%TO.N,/D2-*%
X156760624Y-80160624D03*
%TD*%
D12*
%TO.P,J5,1,Pin_1*%
%TO.N,+5V*%
X156170212Y-93667214D03*
D13*
%TO.P,J5,2,Pin_2*%
%TO.N,GND*%
X158710212Y-93667214D03*
%TD*%
D14*
%TO.P,J1,1,Pin_1*%
%TO.N,/PICO_D0+*%
X142840000Y-94600000D03*
D15*
X142840000Y-95500000D03*
D14*
%TO.P,J1,2,Pin_2*%
%TO.N,/PICO_D0-*%
X145380000Y-94600000D03*
D15*
X145380000Y-95500000D03*
D14*
%TO.P,J1,3,Pin_3*%
%TO.N,GND*%
X147920000Y-94600000D03*
D15*
X147920000Y-95500000D03*
D14*
%TO.P,J1,4,Pin_4*%
%TO.N,/PICO_CK+*%
X150460000Y-94600000D03*
D15*
X150460000Y-95500000D03*
D14*
%TO.P,J1,5,Pin_5*%
%TO.N,/PICO_CK-*%
X153000000Y-94600000D03*
D15*
X153000000Y-95500000D03*
%TD*%
D16*
%TO.P,R8,1*%
%TO.N,/PICO_CK-*%
X157250000Y-87810000D03*
%TO.P,R8,2*%
%TO.N,/CK-*%
X157250000Y-86790000D03*
%TD*%
D17*
%TO.P,R6,1*%
%TO.N,/PICO_D0-*%
X156139376Y-84860624D03*
%TO.P,R6,2*%
%TO.N,/D0-*%
X156860624Y-84139376D03*
%TD*%
D11*
%TO.P,R1,1*%
%TO.N,/PICO_D2+*%
X156739376Y-78739376D03*
%TO.P,R1,2*%
%TO.N,/D2+*%
X157460624Y-79460624D03*
%TD*%
D16*
%TO.P,R7,1*%
%TO.N,/PICO_CK+*%
X156300000Y-87810000D03*
%TO.P,R7,2*%
%TO.N,/CK+*%
X156300000Y-86790000D03*
%TD*%
D11*
%TO.P,R3,1*%
%TO.N,/PICO_D1+*%
X156039376Y-80789376D03*
%TO.P,R3,2*%
%TO.N,/D1+*%
X156760624Y-81510624D03*
%TD*%
D18*
%TO.P,J2,1,Pin_1*%
%TO.N,/PICO_D2+*%
X153000000Y-75400000D03*
D15*
X153000000Y-74500000D03*
D18*
%TO.P,J2,2,Pin_2*%
%TO.N,/PICO_D2-*%
X150460000Y-75400000D03*
D15*
X150460000Y-74500000D03*
D18*
%TO.P,J2,3,Pin_3*%
%TO.N,GND*%
X147920000Y-75400000D03*
D15*
X147920000Y-74500000D03*
D18*
%TO.P,J2,4,Pin_4*%
%TO.N,/PICO_D1+*%
X145380000Y-75400000D03*
D15*
X145380000Y-74500000D03*
D18*
%TO.P,J2,5,Pin_5*%
%TO.N,/PICO_D1-*%
X142840000Y-75400000D03*
D15*
X142840000Y-74500000D03*
%TD*%
D19*
%TO.P,J3,1,Pin_1*%
%TO.N,unconnected-(J3-Pin_1-Pad1)*%
X153500000Y-87540000D03*
D15*
X154400000Y-87540000D03*
D19*
%TO.P,J3,2,Pin_2*%
%TO.N,GND*%
X153500000Y-85000000D03*
D15*
X154400000Y-85000000D03*
D19*
%TO.P,J3,3,Pin_3*%
%TO.N,unconnected-(J3-Pin_3-Pad3)*%
X153500000Y-82460000D03*
D15*
X154400000Y-82460000D03*
%TD*%
D17*
%TO.P,R5,1*%
%TO.N,/PICO_D0+*%
X155439376Y-84160624D03*
%TO.P,R5,2*%
%TO.N,/D0+*%
X156160624Y-83439376D03*
%TD*%
D11*
%TO.P,R4,1*%
%TO.N,/PICO_D1-*%
X155339376Y-81489376D03*
%TO.P,R4,2*%
%TO.N,/D1-*%
X156060624Y-82210624D03*
%TD*%
D20*
%TO.N,/D1+*%
X160354214Y-81634126D03*
%TO.N,/D1-*%
X160547031Y-82688189D03*
%TO.N,/CK+*%
X160752702Y-84642061D03*
%TO.N,/CK-*%
X158943771Y-85736178D03*
%TO.N,GND*%
X155350000Y-82600000D03*
X143260000Y-77370000D03*
X156010000Y-89470000D03*
X158440000Y-79620000D03*
X154500000Y-86300000D03*
X150950000Y-92570000D03*
X157430000Y-80520000D03*
X157540000Y-89750000D03*
X157450000Y-82250000D03*
X154800000Y-74250000D03*
X152600000Y-92600000D03*
X157500000Y-83750000D03*
X154600000Y-81200000D03*
X143300000Y-92500000D03*
X142300000Y-85000000D03*
X154950000Y-95800000D03*
X144900000Y-92500000D03*
X152670000Y-77280000D03*
X155250000Y-79600000D03*
X158200000Y-74250000D03*
X154500000Y-83700000D03*
X157500000Y-85300000D03*
X154500000Y-88800000D03*
X158100000Y-95800000D03*
X144990000Y-77350000D03*
X150950000Y-77440000D03*
%TD*%
D21*
%TO.N,GND*%
X164426455Y-87964222D02*
X159325778Y-87964222D01*
X159325778Y-87964222D02*
X157540000Y-89750000D01*
X164426455Y-85054222D02*
X164343616Y-85137061D01*
X164343616Y-85137061D02*
X157662939Y-85137061D01*
X157662939Y-85137061D02*
X157500000Y-85300000D01*
D22*
%TO.N,/CK+*%
X160752702Y-84642061D02*
X160649764Y-84744999D01*
X160649764Y-84744999D02*
X157233599Y-84744999D01*
%TO.N,/D2+*%
X164426455Y-80204222D02*
X158845778Y-80204222D01*
X158845778Y-80204222D02*
X158800000Y-80250000D01*
%TO.N,/D2-*%
X158800000Y-81250000D02*
X158970874Y-81079126D01*
X164331359Y-81079126D02*
X164426455Y-81174222D01*
X158970874Y-81079126D02*
X164331359Y-81079126D01*
%TO.N,/D1+*%
X160354214Y-81634126D02*
X158915874Y-81634126D01*
X158915874Y-81634126D02*
X158800000Y-81750000D01*
D21*
%TO.N,GND*%
X164426455Y-82144222D02*
X157555778Y-82144222D01*
X157555778Y-82144222D02*
X157450000Y-82250000D01*
D22*
%TO.N,/D0+*%
X156160624Y-83439376D02*
X156960624Y-83439376D01*
X157705011Y-83194989D02*
X157760022Y-83250000D01*
X156960624Y-83439376D02*
X157205011Y-83194989D01*
X157205011Y-83194989D02*
X157705011Y-83194989D01*
X157760022Y-83250000D02*
X164290677Y-83250000D01*
X164290677Y-83250000D02*
X164426455Y-83114222D01*
%TO.N,/D1-*%
X160547031Y-82688189D02*
X160485220Y-82750000D01*
X160485220Y-82750000D02*
X157771417Y-82750000D01*
X157771417Y-82750000D02*
X157716406Y-82805011D01*
X157716406Y-82805011D02*
X157086310Y-82805011D01*
X157086310Y-82805011D02*
X156491923Y-82210624D01*
X156491923Y-82210624D02*
X156060624Y-82210624D01*
%TO.N,/D0-*%
X158800000Y-84250000D02*
X158965778Y-84084222D01*
X158965778Y-84084222D02*
X164426455Y-84084222D01*
%TO.N,/PICO_CK-*%
X153000000Y-93900000D02*
X151920000Y-92820000D01*
X151920000Y-92348702D02*
X152378702Y-91890000D01*
X151920000Y-92820000D02*
X151920000Y-92348702D01*
X155178702Y-91890000D02*
X156965000Y-90103702D01*
X156965000Y-90103702D02*
X156965000Y-88095000D01*
X153000000Y-93900000D02*
X153168702Y-93900000D01*
X152378702Y-91890000D02*
X155178702Y-91890000D01*
X156965000Y-88095000D02*
X157250000Y-87810000D01*
%TO.N,/PICO_CK+*%
X150460000Y-93900000D02*
X151540000Y-92820000D01*
X155021298Y-91510000D02*
X156585000Y-89946298D01*
X151540000Y-92191298D02*
X152221298Y-91510000D01*
X156585000Y-89946298D02*
X156585000Y-88095000D01*
X151540000Y-92820000D02*
X151540000Y-92191298D01*
X156585000Y-88095000D02*
X156300000Y-87810000D01*
X152221298Y-91510000D02*
X155021298Y-91510000D01*
D21*
%TO.N,GND*%
X154400000Y-85000000D02*
X154500000Y-85100000D01*
X154400000Y-85000000D02*
X154500000Y-84900000D01*
X147920000Y-76100000D02*
X147920000Y-77180000D01*
X147920000Y-93900000D02*
X147920000Y-92870000D01*
D23*
X154500000Y-85100000D02*
X154500000Y-86300000D01*
X154500000Y-84900000D02*
X154500000Y-83700000D01*
D22*
%TO.N,/PICO_D0-*%
X155540000Y-89128702D02*
X155540000Y-85210000D01*
X154178702Y-90490000D02*
X155540000Y-89128702D01*
X155889376Y-84860624D02*
X156139376Y-84860624D01*
X144300000Y-92068702D02*
X145878702Y-90490000D01*
X145878702Y-90490000D02*
X154178702Y-90490000D01*
X145380000Y-93900000D02*
X144300000Y-92820000D01*
X144300000Y-92820000D02*
X144300000Y-92068702D01*
X155540000Y-85210000D02*
X155889376Y-84860624D01*
%TO.N,/PICO_D0+*%
X143920000Y-92820000D02*
X143920000Y-91911298D01*
X155500000Y-84712570D02*
X155500000Y-84221248D01*
X155500000Y-84221248D02*
X155439376Y-84160624D01*
X155159980Y-88971318D02*
X155159980Y-85052590D01*
X143920000Y-91911298D02*
X145721298Y-90110000D01*
X145721298Y-90110000D02*
X154021298Y-90110000D01*
X142840000Y-93900000D02*
X143920000Y-92820000D01*
X155159980Y-85052590D02*
X155500000Y-84712570D01*
X154021298Y-90110000D02*
X155159980Y-88971318D01*
%TO.N,/PICO_D1-*%
X142840000Y-76100000D02*
X143920000Y-77180000D01*
X143920000Y-77688702D02*
X146571298Y-80340000D01*
X154621299Y-80340000D02*
X155339376Y-81058077D01*
X146571298Y-80340000D02*
X154621299Y-80340000D01*
X143920000Y-77180000D02*
X143920000Y-77688702D01*
X155339376Y-81058077D02*
X155339376Y-81489376D01*
%TO.N,/PICO_D1+*%
X155608077Y-80789376D02*
X156039376Y-80789376D01*
X154778701Y-79960000D02*
X155608077Y-80789376D01*
X144300000Y-77531298D02*
X146728702Y-79960000D01*
X144300000Y-77180000D02*
X144300000Y-77531298D01*
X146728702Y-79960000D02*
X154778701Y-79960000D01*
X145380000Y-76100000D02*
X144300000Y-77180000D01*
%TO.N,/PICO_D2-*%
X156039376Y-79008077D02*
X156039376Y-79439376D01*
X155821299Y-78790000D02*
X156039376Y-79008077D01*
X151540000Y-77180000D02*
X151540000Y-77558702D01*
X150460000Y-76100000D02*
X151540000Y-77180000D01*
X151540000Y-77558702D02*
X152771298Y-78790000D01*
X152771298Y-78790000D02*
X155821299Y-78790000D01*
%TO.N,/PICO_D2+*%
X151920000Y-77180000D02*
X151920000Y-77401298D01*
X151920000Y-77401298D02*
X152928702Y-78410000D01*
X156308077Y-78739376D02*
X156739376Y-78739376D01*
X152928702Y-78410000D02*
X155978701Y-78410000D01*
X153000000Y-76100000D02*
X151920000Y-77180000D01*
X155978701Y-78410000D02*
X156308077Y-78739376D01*
%TO.N,/D2+*%
X157460624Y-79689207D02*
X158021417Y-80250000D01*
X157460624Y-79460624D02*
X157460624Y-79689207D01*
X158021417Y-80250000D02*
X158800000Y-80250000D01*
%TO.N,/D2-*%
X156760624Y-80160624D02*
X156967959Y-80160624D01*
X156874989Y-80786406D02*
X157163594Y-81075011D01*
X157605011Y-81075011D02*
X157780000Y-81250000D01*
X156967959Y-80160624D02*
X156874989Y-80253594D01*
X156874989Y-80253594D02*
X156874989Y-80786406D01*
X157163594Y-81075011D02*
X157605011Y-81075011D01*
X157780000Y-81250000D02*
X158800000Y-81250000D01*
%TO.N,/D1+*%
X156760624Y-81510624D02*
X156944989Y-81694989D01*
X157716406Y-81694989D02*
X157771417Y-81750000D01*
X156944989Y-81694989D02*
X157716406Y-81694989D01*
X157771417Y-81750000D02*
X158800000Y-81750000D01*
%TO.N,/D0-*%
X157771417Y-84250000D02*
X158800000Y-84250000D01*
X157716406Y-84305011D02*
X157771417Y-84250000D01*
X156860624Y-84139376D02*
X157017959Y-84139376D01*
X157183594Y-84305011D02*
X157716406Y-84305011D01*
X157017959Y-84139376D02*
X157183594Y-84305011D01*
%TO.N,/CK+*%
X156939299Y-85039299D02*
X156939299Y-85660701D01*
X156300000Y-86790000D02*
X156600000Y-86490000D01*
X156939299Y-85660701D02*
X156600000Y-86000000D01*
X156939299Y-85039299D02*
X157233599Y-84744999D01*
X156600000Y-86490000D02*
X156600000Y-86000000D01*
%TO.N,/CK-*%
X157250000Y-86790000D02*
X157000000Y-86540000D01*
X157871402Y-85750000D02*
X158800000Y-85750000D01*
X157766401Y-85855001D02*
X157871402Y-85750000D01*
X157000000Y-86540000D02*
X157000000Y-86200000D01*
X157000000Y-86200000D02*
X157344999Y-85855001D01*
X157344999Y-85855001D02*
X157766401Y-85855001D01*
%TD*%
%TA.AperFunction,Conductor*%
%TO.N,GND*%
G36*
X155926500Y-88163823D02*
G01*
X155941826Y-88175583D01*
X155950859Y-88184616D01*
X156048502Y-88227730D01*
X156072377Y-88230500D01*
X156235500Y-88230499D01*
X156283066Y-88247811D01*
X156308376Y-88291649D01*
X156309500Y-88304499D01*
X156309500Y-89801530D01*
X156292187Y-89849096D01*
X156287826Y-89853856D01*
X154928856Y-91212826D01*
X154882980Y-91234218D01*
X154876530Y-91234500D01*
X152255718Y-91234500D01*
X152241281Y-91233078D01*
X152221298Y-91229103D01*
X152221297Y-91229103D01*
X152194166Y-91234500D01*
X152194165Y-91234500D01*
X152178181Y-91237679D01*
X152113804Y-91250484D01*
X152113802Y-91250485D01*
X152071833Y-91278525D01*
X152071834Y-91278526D01*
X152045677Y-91296005D01*
X152045676Y-91296006D01*
X152045674Y-91296007D01*
X152037972Y-91301153D01*
X152022673Y-91311376D01*
X152022672Y-91311377D01*
X152011351Y-91328319D01*
X152002151Y-91339529D01*
X151369529Y-91972151D01*
X151358319Y-91981351D01*
X151341377Y-91992672D01*
X151341375Y-91992674D01*
X151280484Y-92083804D01*
X151279422Y-92087306D01*
X151279063Y-92090952D01*
X151259103Y-92191298D01*
X151263078Y-92211281D01*
X151264500Y-92225718D01*
X151264500Y-92675231D01*
X151247187Y-92722797D01*
X151242826Y-92727557D01*
X150942214Y-93028168D01*
X150896337Y-93049560D01*
X150884837Y-93049375D01*
X150884822Y-93049632D01*
X150882614Y-93049500D01*
X150037387Y-93049500D01*
X150037385Y-93049501D01*
X149951983Y-93059755D01*
X149951979Y-93059756D01*
X149816057Y-93113356D01*
X149699639Y-93201638D01*
X149699638Y-93201639D01*
X149611356Y-93318057D01*
X149557757Y-93453976D01*
X149547500Y-93539387D01*
X149547500Y-95660612D01*
X149547501Y-95660614D01*
X149557755Y-95746016D01*
X149557756Y-95746020D01*
X149557756Y-95746022D01*
X149557757Y-95746023D01*
X149557983Y-95746595D01*
X149611356Y-95881942D01*
X149696901Y-95994750D01*
X149699639Y-95998361D01*
X149816057Y-96086643D01*
X149838472Y-96095482D01*
X149876371Y-96129036D01*
X149883835Y-96179102D01*
X149857371Y-96222252D01*
X149811338Y-96238323D01*
X148666054Y-96238501D01*
X148618485Y-96221196D01*
X148593168Y-96177362D01*
X148601950Y-96127511D01*
X148620994Y-96105792D01*
X148715375Y-96033372D01*
X148715376Y-96033371D01*
X148808500Y-95912009D01*
X148808502Y-95912005D01*
X148867045Y-95770670D01*
X148882000Y-95657075D01*
X148882000Y-94700000D01*
X146958001Y-94700000D01*
X146958001Y-95657075D01*
X146972954Y-95770668D01*
X146972955Y-95770672D01*
X147031497Y-95912005D01*
X147031499Y-95912009D01*
X147124623Y-96033371D01*
X147124628Y-96033376D01*
X147219307Y-96106025D01*
X147246505Y-96148716D01*
X147239898Y-96198902D01*
X147202578Y-96233100D01*
X147174271Y-96238733D01*
X146027193Y-96238912D01*
X145979624Y-96221607D01*
X145954307Y-96177773D01*
X145963089Y-96127922D01*
X146000035Y-96096071D01*
X146023943Y-96086643D01*
X146140361Y-95998361D01*
X146228643Y-95881943D01*
X146282243Y-95746023D01*
X146292500Y-95660611D01*
X146292499Y-94500000D01*
X146958000Y-94500000D01*
X147820000Y-94500000D01*
X147820000Y-94390764D01*
X147884237Y-94400000D01*
X147955763Y-94400000D01*
X148020000Y-94390764D01*
X148020000Y-94500000D01*
X148881999Y-94500000D01*
X148881999Y-93542924D01*
X148867045Y-93429331D01*
X148867044Y-93429327D01*
X148808502Y-93287994D01*
X148808500Y-93287990D01*
X148715376Y-93166628D01*
X148715371Y-93166623D01*
X148594009Y-93073499D01*
X148594005Y-93073497D01*
X148452670Y-93014954D01*
X148339075Y-93000000D01*
X148020000Y-93000000D01*
X148020000Y-93409235D01*
X147955763Y-93400000D01*
X147884237Y-93400000D01*
X147820000Y-93409235D01*
X147820000Y-93000000D01*
X147500924Y-93000000D01*
X147387331Y-93014954D01*
X147387327Y-93014955D01*
X147245994Y-93073497D01*
X147245990Y-93073499D01*
X147124628Y-93166623D01*
X147124623Y-93166628D01*
X147031499Y-93287990D01*
X147031497Y-93287994D01*
X146972954Y-93429329D01*
X146958000Y-93542924D01*
X146958000Y-94500000D01*
X146292499Y-94500000D01*
X146292499Y-93539390D01*
X146284773Y-93475048D01*
X146282244Y-93453983D01*
X146282243Y-93453979D01*
X146282243Y-93453977D01*
X146228643Y-93318057D01*
X146140361Y-93201639D01*
X146094186Y-93166623D01*
X146023942Y-93113356D01*
X145888023Y-93059757D01*
X145802612Y-93049500D01*
X144957390Y-93049500D01*
X144955183Y-93049633D01*
X144955111Y-93048439D01*
X144909593Y-93037764D01*
X144897785Y-93028169D01*
X144597174Y-92727558D01*
X144575782Y-92681682D01*
X144575500Y-92675232D01*
X144575500Y-92213470D01*
X144592813Y-92165904D01*
X144597174Y-92161144D01*
X145971144Y-90787174D01*
X146017020Y-90765782D01*
X146023470Y-90765500D01*
X154144282Y-90765500D01*
X154158718Y-90766921D01*
X154178702Y-90770897D01*
X154178703Y-90770897D01*
X154183324Y-90769977D01*
X154205834Y-90765500D01*
X154205835Y-90765500D01*
X154286197Y-90749515D01*
X154328167Y-90721471D01*
X154354324Y-90703994D01*
X154354325Y-90703992D01*
X154362339Y-90698638D01*
X154362340Y-90698636D01*
X154377326Y-90688624D01*
X154388646Y-90671681D01*
X154397843Y-90660474D01*
X155710473Y-89347843D01*
X155721676Y-89338649D01*
X155738624Y-89327326D01*
X155799515Y-89236197D01*
X155815500Y-89155835D01*
X155815500Y-89155834D01*
X155820897Y-89128702D01*
X155816922Y-89108717D01*
X155815500Y-89094281D01*
X155815500Y-88227909D01*
X155832813Y-88180343D01*
X155876650Y-88155033D01*
X155926500Y-88163823D01*
G37*
%TD.AperFunction*%
%TA.AperFunction,Conductor*%
G36*
X161962835Y-84377035D02*
G01*
X161983637Y-84405406D01*
X161984688Y-84407944D01*
X162017950Y-84457725D01*
X162017951Y-84457726D01*
X162048182Y-84477926D01*
X162078114Y-84518748D01*
X162074803Y-84569258D01*
X162048182Y-84600984D01*
X161982263Y-84645029D01*
X161982262Y-84645030D01*
X161938058Y-84711186D01*
X161926455Y-84769524D01*
X161926455Y-85338919D01*
X161938058Y-85397257D01*
X161982262Y-85463413D01*
X161982263Y-85463414D01*
X162048182Y-85507459D01*
X162078114Y-85548280D01*
X162074803Y-85598791D01*
X162048184Y-85630516D01*
X162017951Y-85650717D01*
X162017950Y-85650718D01*
X161984688Y-85700499D01*
X161984688Y-85700500D01*
X161975955Y-85744402D01*
X161975955Y-86304042D01*
X161984688Y-86347944D01*
X162017951Y-86397726D01*
X162067733Y-86430989D01*
X162096162Y-86436644D01*
X162139437Y-86462904D01*
X162155707Y-86510837D01*
X162137361Y-86558014D01*
X162096162Y-86581799D01*
X162086287Y-86583764D01*
X162067732Y-86587455D01*
X162017951Y-86620717D01*
X162017950Y-86620718D01*
X161984688Y-86670499D01*
X161975955Y-86714402D01*
X161975955Y-87274041D01*
X161984688Y-87317944D01*
X162017950Y-87367725D01*
X162017951Y-87367726D01*
X162048182Y-87387926D01*
X162078114Y-87428748D01*
X162074803Y-87479258D01*
X162048182Y-87510984D01*
X161982263Y-87555029D01*
X161982262Y-87555030D01*
X161938058Y-87621186D01*
X161926455Y-87679524D01*
X161926455Y-88248919D01*
X161938058Y-88307257D01*
X161982262Y-88373413D01*
X161982263Y-88373414D01*
X162048419Y-88417618D01*
X162106758Y-88429222D01*
X163820034Y-88429222D01*
X164102876Y-88429222D01*
X164750034Y-88429222D01*
X164426455Y-88105643D01*
X164102876Y-88429221D01*
X164102876Y-88429222D01*
X163820034Y-88429222D01*
X164374129Y-87875127D01*
X164420005Y-87853735D01*
X164468900Y-87866836D01*
X164478781Y-87875127D01*
X165032876Y-88429222D01*
X166652000Y-88429222D01*
X166699566Y-88446535D01*
X166724876Y-88490372D01*
X166726000Y-88503222D01*
X166726000Y-88534722D01*
X166708687Y-88582288D01*
X166664850Y-88607598D01*
X166652000Y-88608722D01*
X162111635Y-88608722D01*
X162089684Y-88613088D01*
X162067732Y-88617455D01*
X162017951Y-88650717D01*
X162017950Y-88650718D01*
X161984688Y-88700499D01*
X161984688Y-88700500D01*
X161975955Y-88744402D01*
X161975955Y-89304042D01*
X161984688Y-89347944D01*
X162017951Y-89397726D01*
X162067733Y-89430989D01*
X162111635Y-89439722D01*
X166652000Y-89439722D01*
X166699566Y-89457035D01*
X166724876Y-89500872D01*
X166726000Y-89513722D01*
X166726000Y-89914700D01*
X166708687Y-89962266D01*
X166664850Y-89987576D01*
X166652000Y-89988700D01*
X162142809Y-89988700D01*
X162138461Y-89987835D01*
X162125998Y-89987835D01*
X162123911Y-89988699D01*
X162123912Y-89988700D01*
X162117963Y-89991164D01*
X162114635Y-89999199D01*
X162114635Y-90011661D01*
X162115500Y-90016010D01*
X162115500Y-95735643D01*
X162115492Y-95735697D01*
X162115497Y-95745158D01*
X162114869Y-95754816D01*
X162100264Y-95866218D01*
X162095272Y-95884887D01*
X162054193Y-95984184D01*
X162044535Y-96000926D01*
X161979144Y-96086201D01*
X161965482Y-96099870D01*
X161880244Y-96165303D01*
X161863509Y-96174969D01*
X161764228Y-96216103D01*
X161745559Y-96221105D01*
X161633492Y-96235855D01*
X161623847Y-96236488D01*
X153650196Y-96237727D01*
X153602628Y-96220422D01*
X153577311Y-96176588D01*
X153586093Y-96126737D01*
X153623040Y-96094886D01*
X153643940Y-96086644D01*
X153643939Y-96086644D01*
X153643943Y-96086643D01*
X153760361Y-95998361D01*
X153848643Y-95881943D01*
X153902243Y-95746023D01*
X153912500Y-95660611D01*
X153912499Y-94532034D01*
X155169712Y-94532034D01*
X155178445Y-94575936D01*
X155211708Y-94625718D01*
X155261490Y-94658981D01*
X155305392Y-94667714D01*
X155305393Y-94667714D01*
X157035031Y-94667714D01*
X157035032Y-94667714D01*
X157078934Y-94658981D01*
X157128716Y-94625718D01*
X157161979Y-94575936D01*
X157170712Y-94532034D01*
X157170712Y-93767214D01*
X157664980Y-93767214D01*
X157675404Y-93873051D01*
X157735445Y-94070978D01*
X157832943Y-94253383D01*
X157832949Y-94253392D01*
X157964157Y-94413268D01*
X158124033Y-94544476D01*
X158124042Y-94544482D01*
X158306447Y-94641980D01*
X158504374Y-94702021D01*
X158610212Y-94712444D01*
X158610212Y-94157978D01*
X158674449Y-94167214D01*
X158745975Y-94167214D01*
X158810212Y-94157978D01*
X158810212Y-94712444D01*
X158916049Y-94702021D01*
X159113976Y-94641980D01*
X159296381Y-94544482D01*
X159296390Y-94544476D01*
X159456266Y-94413268D01*
X159587474Y-94253392D01*
X159587480Y-94253383D01*
X159684978Y-94070978D01*
X159745019Y-93873051D01*
X159755444Y-93767214D01*
X159201958Y-93767214D01*
X159210212Y-93739103D01*
X159210212Y-93595325D01*
X159201958Y-93567214D01*
X159755443Y-93567214D01*
X159745019Y-93461376D01*
X159684978Y-93263449D01*
X159587480Y-93081044D01*
X159587474Y-93081035D01*
X159456266Y-92921159D01*
X159296390Y-92789951D01*
X159296381Y-92789945D01*
X159113976Y-92692447D01*
X158916049Y-92632406D01*
X158810212Y-92621982D01*
X158810212Y-93176449D01*
X158745975Y-93167214D01*
X158674449Y-93167214D01*
X158610212Y-93176449D01*
X158610212Y-92621982D01*
X158504374Y-92632406D01*
X158306447Y-92692447D01*
X158124042Y-92789945D01*
X158124033Y-92789951D01*
X157964157Y-92921159D01*
X157832949Y-93081035D01*
X157832943Y-93081044D01*
X157735445Y-93263449D01*
X157675404Y-93461376D01*
X157664980Y-93567214D01*
X158218466Y-93567214D01*
X158210212Y-93595325D01*
X158210212Y-93739103D01*
X158218466Y-93767214D01*
X157664980Y-93767214D01*
X157170712Y-93767214D01*
X157170712Y-92802394D01*
X157161979Y-92758492D01*
X157128716Y-92708710D01*
X157088265Y-92681682D01*
X157078934Y-92675447D01*
X157077848Y-92675231D01*
X157035032Y-92666714D01*
X155305392Y-92666714D01*
X155283441Y-92671080D01*
X155261489Y-92675447D01*
X155211708Y-92708709D01*
X155211707Y-92708710D01*
X155178445Y-92758491D01*
X155178445Y-92758492D01*
X155169712Y-92802394D01*
X155169712Y-94532034D01*
X153912499Y-94532034D01*
X153912499Y-93539390D01*
X153904773Y-93475048D01*
X153902244Y-93453983D01*
X153902243Y-93453979D01*
X153902243Y-93453977D01*
X153848643Y-93318057D01*
X153760361Y-93201639D01*
X153714186Y-93166623D01*
X153643942Y-93113356D01*
X153508023Y-93059757D01*
X153422612Y-93049500D01*
X152577390Y-93049500D01*
X152575183Y-93049633D01*
X152575111Y-93048439D01*
X152529593Y-93037764D01*
X152517785Y-93028169D01*
X152217174Y-92727558D01*
X152195782Y-92681682D01*
X152195500Y-92675232D01*
X152195500Y-92493470D01*
X152212813Y-92445904D01*
X152217174Y-92441144D01*
X152471144Y-92187174D01*
X152517020Y-92165782D01*
X152523470Y-92165500D01*
X155144282Y-92165500D01*
X155158718Y-92166921D01*
X155178702Y-92170897D01*
X155178703Y-92170897D01*
X155183324Y-92169977D01*
X155205834Y-92165500D01*
X155205835Y-92165500D01*
X155286197Y-92149515D01*
X155345452Y-92109922D01*
X155354324Y-92103994D01*
X155354324Y-92103992D01*
X155362337Y-92098639D01*
X155362338Y-92098637D01*
X155377326Y-92088624D01*
X155388646Y-92071681D01*
X155397843Y-92060474D01*
X157135473Y-90322843D01*
X157146676Y-90313649D01*
X157163624Y-90302326D01*
X157224515Y-90211197D01*
X157240500Y-90130835D01*
X157240500Y-90130834D01*
X157245897Y-90103702D01*
X157241922Y-90083717D01*
X157240500Y-90069281D01*
X157240500Y-88304499D01*
X157257813Y-88256933D01*
X157301650Y-88231623D01*
X157314500Y-88230499D01*
X157477622Y-88230499D01*
X157501498Y-88227730D01*
X157599141Y-88184616D01*
X157674616Y-88109141D01*
X157717730Y-88011498D01*
X157720500Y-87987623D01*
X157720499Y-87632378D01*
X157717730Y-87608502D01*
X157674616Y-87510859D01*
X157599141Y-87435384D01*
X157501498Y-87392270D01*
X157477623Y-87389500D01*
X157477619Y-87389500D01*
X157022377Y-87389500D01*
X156998504Y-87392269D01*
X156900858Y-87435384D01*
X156827326Y-87508917D01*
X156781450Y-87530309D01*
X156732555Y-87517208D01*
X156722674Y-87508917D01*
X156649142Y-87435385D01*
X156649141Y-87435384D01*
X156551498Y-87392270D01*
X156527623Y-87389500D01*
X156527619Y-87389500D01*
X156072377Y-87389500D01*
X156048504Y-87392269D01*
X155950858Y-87435384D01*
X155941826Y-87444417D01*
X155895950Y-87465809D01*
X155847055Y-87452708D01*
X155818021Y-87411244D01*
X155815500Y-87392091D01*
X155815500Y-87207909D01*
X155832813Y-87160343D01*
X155876650Y-87135033D01*
X155926500Y-87143823D01*
X155941826Y-87155583D01*
X155950859Y-87164616D01*
X156048502Y-87207730D01*
X156072377Y-87210500D01*
X156527622Y-87210499D01*
X156551498Y-87207730D01*
X156649141Y-87164616D01*
X156722674Y-87091083D01*
X156768550Y-87069691D01*
X156817445Y-87082792D01*
X156827326Y-87091083D01*
X156900859Y-87164616D01*
X156998502Y-87207730D01*
X157022377Y-87210500D01*
X157477622Y-87210499D01*
X157501498Y-87207730D01*
X157599141Y-87164616D01*
X157674616Y-87089141D01*
X157717730Y-86991498D01*
X157720500Y-86967623D01*
X157720499Y-86612378D01*
X157717730Y-86588502D01*
X157674616Y-86490859D01*
X157599141Y-86415384D01*
X157501498Y-86372270D01*
X157477623Y-86369500D01*
X157477619Y-86369500D01*
X157398768Y-86369500D01*
X157351202Y-86352187D01*
X157325892Y-86308350D01*
X157334682Y-86258500D01*
X157346442Y-86243174D01*
X157437441Y-86152175D01*
X157483317Y-86130783D01*
X157489767Y-86130501D01*
X157731981Y-86130501D01*
X157746417Y-86131922D01*
X157766401Y-86135898D01*
X157766402Y-86135898D01*
X157771023Y-86134978D01*
X157793533Y-86130501D01*
X157793534Y-86130501D01*
X157873896Y-86114516D01*
X157915866Y-86086472D01*
X157942023Y-86068995D01*
X157942024Y-86068993D01*
X157950038Y-86063639D01*
X157950039Y-86063637D01*
X157965025Y-86053625D01*
X157965027Y-86053621D01*
X157970178Y-86048472D01*
X157972374Y-86050668D01*
X158002652Y-86028460D01*
X158023371Y-86025500D01*
X158564578Y-86025500D01*
X158612144Y-86042813D01*
X158620504Y-86051041D01*
X158645718Y-86080141D01*
X158645719Y-86080142D01*
X158645722Y-86080145D01*
X158754702Y-86150182D01*
X158878999Y-86186678D01*
X159008543Y-86186678D01*
X159132840Y-86150182D01*
X159241820Y-86080145D01*
X159326653Y-85982241D01*
X159380468Y-85864404D01*
X159398904Y-85736178D01*
X159380468Y-85607952D01*
X159326653Y-85490115D01*
X159241820Y-85392211D01*
X159150990Y-85333838D01*
X159132839Y-85322173D01*
X159008543Y-85285678D01*
X158878999Y-85285678D01*
X158754702Y-85322173D01*
X158645725Y-85392209D01*
X158645718Y-85392214D01*
X158596550Y-85448959D01*
X158552316Y-85473570D01*
X158540624Y-85474500D01*
X157905822Y-85474500D01*
X157891385Y-85473078D01*
X157871402Y-85469103D01*
X157871401Y-85469103D01*
X157844270Y-85474500D01*
X157844269Y-85474500D01*
X157828285Y-85477679D01*
X157763908Y-85490484D01*
X157763906Y-85490485D01*
X157721937Y-85518525D01*
X157721938Y-85518526D01*
X157700775Y-85532668D01*
X157695780Y-85536006D01*
X157695778Y-85536007D01*
X157688076Y-85541153D01*
X157672777Y-85551376D01*
X157667625Y-85556529D01*
X157665428Y-85554332D01*
X157635151Y-85576541D01*
X157614432Y-85579501D01*
X157379419Y-85579501D01*
X157364982Y-85578079D01*
X157348050Y-85574711D01*
X157344999Y-85574104D01*
X157344998Y-85574104D01*
X157303235Y-85582411D01*
X157253206Y-85574711D01*
X157219830Y-85536653D01*
X157214799Y-85509833D01*
X157214799Y-85184067D01*
X157232112Y-85136501D01*
X157236473Y-85131741D01*
X157326041Y-85042173D01*
X157371917Y-85020781D01*
X157378367Y-85020499D01*
X160486563Y-85020499D01*
X160526569Y-85032245D01*
X160563633Y-85056065D01*
X160687930Y-85092561D01*
X160817474Y-85092561D01*
X160941771Y-85056065D01*
X161050751Y-84986028D01*
X161135584Y-84888124D01*
X161189399Y-84770287D01*
X161207835Y-84642061D01*
X161189399Y-84513835D01*
X161166850Y-84464462D01*
X161162840Y-84414003D01*
X161192201Y-84372770D01*
X161234164Y-84359722D01*
X161915269Y-84359722D01*
X161962835Y-84377035D01*
G37*
%TD.AperFunction*%
%TA.AperFunction,Conductor*%
G36*
X142203818Y-73784041D02*
G01*
X142234634Y-73824199D01*
X142232426Y-73874770D01*
X142200335Y-73910951D01*
X142196058Y-73913356D01*
X142079639Y-74001638D01*
X142079638Y-74001639D01*
X141991356Y-74118057D01*
X141937757Y-74253976D01*
X141927500Y-74339387D01*
X141927500Y-76460612D01*
X141927501Y-76460614D01*
X141937755Y-76546016D01*
X141937756Y-76546020D01*
X141937756Y-76546022D01*
X141937757Y-76546023D01*
X141947476Y-76570668D01*
X141991356Y-76681942D01*
X142014157Y-76712009D01*
X142079639Y-76798361D01*
X142196057Y-76886643D01*
X142331977Y-76940243D01*
X142417389Y-76950500D01*
X143262610Y-76950499D01*
X143262612Y-76950499D01*
X143264820Y-76950367D01*
X143264894Y-76951606D01*
X143310279Y-76962151D01*
X143322214Y-76971830D01*
X143622826Y-77272442D01*
X143644218Y-77318318D01*
X143644500Y-77324768D01*
X143644500Y-77654281D01*
X143643078Y-77668717D01*
X143639103Y-77688701D01*
X143639103Y-77688702D01*
X143644500Y-77715834D01*
X143660485Y-77796197D01*
X143721377Y-77887327D01*
X143738314Y-77898644D01*
X143749529Y-77907847D01*
X146352151Y-80510469D01*
X146361353Y-80521682D01*
X146372673Y-80538623D01*
X146372674Y-80538624D01*
X146392649Y-80551971D01*
X146392653Y-80551974D01*
X146463804Y-80599516D01*
X146571297Y-80620897D01*
X146571298Y-80620897D01*
X146571299Y-80620897D01*
X146591283Y-80616922D01*
X146605719Y-80615500D01*
X154476531Y-80615500D01*
X154524097Y-80632813D01*
X154528857Y-80637174D01*
X155010553Y-81118870D01*
X155031945Y-81164746D01*
X155018844Y-81213641D01*
X155010553Y-81223522D01*
X154881085Y-81352990D01*
X154866161Y-81371830D01*
X154866159Y-81371834D01*
X154827603Y-81471360D01*
X154827603Y-81520634D01*
X154810290Y-81568200D01*
X154766453Y-81593510D01*
X154726456Y-81589475D01*
X154646023Y-81557757D01*
X154560612Y-81547500D01*
X152439387Y-81547500D01*
X152439385Y-81547501D01*
X152353983Y-81557755D01*
X152353979Y-81557756D01*
X152218057Y-81611356D01*
X152101639Y-81699638D01*
X152101638Y-81699639D01*
X152013356Y-81816057D01*
X151959757Y-81951976D01*
X151949500Y-82037387D01*
X151949500Y-82882612D01*
X151949501Y-82882614D01*
X151959755Y-82968016D01*
X151959756Y-82968020D01*
X152013356Y-83103942D01*
X152045677Y-83146563D01*
X152101639Y-83220361D01*
X152218057Y-83308643D01*
X152353977Y-83362243D01*
X152439389Y-83372500D01*
X154560610Y-83372499D01*
X154560612Y-83372499D01*
X154560612Y-83372498D01*
X154625963Y-83364651D01*
X154646016Y-83362244D01*
X154646017Y-83362243D01*
X154646023Y-83362243D01*
X154781943Y-83308643D01*
X154898361Y-83220361D01*
X154986643Y-83103943D01*
X155040243Y-82968023D01*
X155050500Y-82882611D01*
X155050499Y-82037390D01*
X155050498Y-82037387D01*
X155050414Y-82035973D01*
X155050499Y-82035687D01*
X155050499Y-82035178D01*
X155050651Y-82035178D01*
X155064854Y-81987457D01*
X155107101Y-81959574D01*
X155151014Y-81962549D01*
X155151119Y-81962589D01*
X155151122Y-81962592D01*
X155250652Y-82001149D01*
X155270497Y-82001149D01*
X155318063Y-82018462D01*
X155322823Y-82022823D01*
X155514392Y-82214392D01*
X155522417Y-82217313D01*
X155547727Y-82261150D01*
X155548851Y-82274000D01*
X155548851Y-82299349D01*
X155566235Y-82344223D01*
X155587408Y-82398878D01*
X155602332Y-82417719D01*
X155853529Y-82668915D01*
X155872370Y-82683840D01*
X155971900Y-82722397D01*
X155971901Y-82722397D01*
X156026000Y-82722397D01*
X156073566Y-82739710D01*
X156098876Y-82783547D01*
X156100000Y-82796397D01*
X156100000Y-82866025D01*
X156082687Y-82913591D01*
X156052732Y-82935028D01*
X155972371Y-82966159D01*
X155953530Y-82981083D01*
X155953523Y-82981089D01*
X155702333Y-83232280D01*
X155687409Y-83251120D01*
X155687407Y-83251123D01*
X155648046Y-83352731D01*
X155614720Y-83390832D01*
X155607247Y-83392752D01*
X155388006Y-83611993D01*
X155382687Y-83626608D01*
X155352732Y-83648045D01*
X155251123Y-83687407D01*
X155232282Y-83702331D01*
X155232275Y-83702337D01*
X154981085Y-83953528D01*
X154966161Y-83972368D01*
X154966159Y-83972372D01*
X154925126Y-84078294D01*
X154922007Y-84077085D01*
X154902966Y-84109227D01*
X154855209Y-84126005D01*
X154816883Y-84112755D01*
X154816209Y-84113924D01*
X154812005Y-84111497D01*
X154670670Y-84052954D01*
X154557075Y-84038000D01*
X153600000Y-84038000D01*
X153600000Y-85961999D01*
X154557075Y-85961999D01*
X154670668Y-85947045D01*
X154670672Y-85947044D01*
X154782162Y-85900864D01*
X154832732Y-85898656D01*
X154872891Y-85929471D01*
X154884480Y-85969231D01*
X154884480Y-86623064D01*
X154867167Y-86670630D01*
X154823330Y-86695940D01*
X154783333Y-86691905D01*
X154646023Y-86637757D01*
X154560612Y-86627500D01*
X152439387Y-86627500D01*
X152439385Y-86627501D01*
X152353983Y-86637755D01*
X152353979Y-86637756D01*
X152218057Y-86691356D01*
X152101639Y-86779638D01*
X152101638Y-86779639D01*
X152013356Y-86896057D01*
X151959757Y-87031976D01*
X151949500Y-87117387D01*
X151949500Y-87962612D01*
X151949501Y-87962614D01*
X151959755Y-88048016D01*
X151959756Y-88048020D01*
X152013356Y-88183942D01*
X152095033Y-88291649D01*
X152101639Y-88300361D01*
X152218057Y-88388643D01*
X152353977Y-88442243D01*
X152439389Y-88452500D01*
X154560610Y-88452499D01*
X154560612Y-88452499D01*
X154560612Y-88452498D01*
X154625963Y-88444651D01*
X154646016Y-88442244D01*
X154646017Y-88442243D01*
X154646023Y-88442243D01*
X154781943Y-88388643D01*
X154781945Y-88388641D01*
X154783333Y-88388094D01*
X154833934Y-88386750D01*
X154873561Y-88418246D01*
X154884480Y-88456935D01*
X154884480Y-88826550D01*
X154867167Y-88874116D01*
X154862806Y-88878876D01*
X153928856Y-89812826D01*
X153882980Y-89834218D01*
X153876530Y-89834500D01*
X145755718Y-89834500D01*
X145741281Y-89833078D01*
X145721298Y-89829103D01*
X145721297Y-89829103D01*
X145694166Y-89834500D01*
X145694165Y-89834500D01*
X145678181Y-89837679D01*
X145613804Y-89850484D01*
X145613802Y-89850485D01*
X145571833Y-89878525D01*
X145571834Y-89878526D01*
X145545677Y-89896005D01*
X145545676Y-89896006D01*
X145545674Y-89896007D01*
X145537972Y-89901153D01*
X145522673Y-89911376D01*
X145522672Y-89911377D01*
X145511351Y-89928319D01*
X145502151Y-89939529D01*
X143749529Y-91692151D01*
X143738319Y-91701351D01*
X143721377Y-91712672D01*
X143721375Y-91712674D01*
X143660484Y-91803804D01*
X143659422Y-91807306D01*
X143659063Y-91810952D01*
X143639103Y-91911298D01*
X143643078Y-91931281D01*
X143644500Y-91945718D01*
X143644500Y-92675231D01*
X143627187Y-92722797D01*
X143622826Y-92727557D01*
X143322214Y-93028168D01*
X143276337Y-93049560D01*
X143264837Y-93049375D01*
X143264822Y-93049632D01*
X143262614Y-93049500D01*
X142417387Y-93049500D01*
X142417385Y-93049501D01*
X142331983Y-93059755D01*
X142331979Y-93059756D01*
X142196057Y-93113356D01*
X142079639Y-93201638D01*
X142079638Y-93201639D01*
X141991356Y-93318057D01*
X141937757Y-93453976D01*
X141927500Y-93539387D01*
X141927500Y-95660612D01*
X141927501Y-95660614D01*
X141937755Y-95746016D01*
X141937756Y-95746020D01*
X141937756Y-95746022D01*
X141937757Y-95746023D01*
X141937983Y-95746595D01*
X141991356Y-95881942D01*
X142079638Y-95998360D01*
X142079639Y-95998361D01*
X142196057Y-96086643D01*
X142200329Y-96089045D01*
X142233304Y-96127450D01*
X142233879Y-96178066D01*
X142201784Y-96217209D01*
X142154399Y-96226914D01*
X142132966Y-96224092D01*
X142114307Y-96219092D01*
X142014248Y-96177646D01*
X141997519Y-96167987D01*
X141911600Y-96102059D01*
X141897940Y-96088399D01*
X141832012Y-96002480D01*
X141822353Y-95985751D01*
X141780907Y-95885692D01*
X141775907Y-95867032D01*
X141768072Y-95807520D01*
X141761133Y-95754808D01*
X141760500Y-95745149D01*
X141760500Y-84900000D01*
X151900000Y-84900000D01*
X152308254Y-84900000D01*
X152300000Y-84928111D01*
X152300000Y-85071889D01*
X152308254Y-85100000D01*
X151900001Y-85100000D01*
X151900001Y-85419075D01*
X151914954Y-85532668D01*
X151914955Y-85532672D01*
X151973497Y-85674005D01*
X151973499Y-85674009D01*
X152066623Y-85795371D01*
X152066628Y-85795376D01*
X152187990Y-85888500D01*
X152187994Y-85888502D01*
X152329329Y-85947045D01*
X152442924Y-85961999D01*
X153400000Y-85961999D01*
X153400000Y-85100000D01*
X153291746Y-85100000D01*
X153300000Y-85071889D01*
X153300000Y-84928111D01*
X153291746Y-84900000D01*
X153400000Y-84900000D01*
X153400000Y-84038000D01*
X152442924Y-84038000D01*
X152329331Y-84052954D01*
X152329327Y-84052955D01*
X152187994Y-84111497D01*
X152187990Y-84111499D01*
X152066628Y-84204623D01*
X152066623Y-84204628D01*
X151973499Y-84325990D01*
X151973497Y-84325994D01*
X151914954Y-84467329D01*
X151900000Y-84580924D01*
X151900000Y-84900000D01*
X141760500Y-84900000D01*
X141760500Y-74254850D01*
X141761133Y-74245191D01*
X141763221Y-74229329D01*
X141775907Y-74132964D01*
X141780907Y-74114307D01*
X141822355Y-74014242D01*
X141832008Y-73997525D01*
X141897941Y-73911598D01*
X141911598Y-73897941D01*
X141997525Y-73832008D01*
X142014242Y-73822355D01*
X142114309Y-73780906D01*
X142132962Y-73775908D01*
X142154401Y-73773085D01*
X142203818Y-73784041D01*
G37*
%TD.AperFunction*%
%TA.AperFunction,Conductor*%
G36*
X157612784Y-83482960D02*
G01*
X157652527Y-83509515D01*
X157760022Y-83530897D01*
X157780005Y-83526921D01*
X157794442Y-83525500D01*
X162080328Y-83525500D01*
X162127894Y-83542813D01*
X162153204Y-83586650D01*
X162144414Y-83636500D01*
X162105637Y-83669037D01*
X162094767Y-83672077D01*
X162080749Y-83674865D01*
X162067732Y-83677455D01*
X162017951Y-83710717D01*
X162017950Y-83710718D01*
X161984688Y-83760499D01*
X161983637Y-83763038D01*
X161981255Y-83765636D01*
X161980639Y-83766560D01*
X161980496Y-83766465D01*
X161949441Y-83800359D01*
X161915269Y-83808722D01*
X159000194Y-83808722D01*
X158985758Y-83807300D01*
X158965779Y-83803326D01*
X158965775Y-83803326D01*
X158942215Y-83808012D01*
X158942210Y-83808012D01*
X158942211Y-83808013D01*
X158938647Y-83808722D01*
X158938645Y-83808722D01*
X158890349Y-83818328D01*
X158858282Y-83824707D01*
X158767154Y-83885597D01*
X158767152Y-83885599D01*
X158755829Y-83902544D01*
X158746630Y-83913753D01*
X158707559Y-83952825D01*
X158661682Y-83974218D01*
X158655232Y-83974500D01*
X157805837Y-83974500D01*
X157791400Y-83973078D01*
X157771417Y-83969103D01*
X157663921Y-83990485D01*
X157624179Y-84017040D01*
X157583067Y-84029511D01*
X157375709Y-84029511D01*
X157328143Y-84012198D01*
X157320558Y-84004387D01*
X157320336Y-84004586D01*
X157318921Y-84002997D01*
X157318916Y-84002991D01*
X157099923Y-83783999D01*
X157078532Y-83738124D01*
X157091633Y-83689229D01*
X157111142Y-83670143D01*
X157117104Y-83666160D01*
X157136246Y-83653370D01*
X157136246Y-83653369D01*
X157144260Y-83648015D01*
X157144263Y-83648012D01*
X157159248Y-83638000D01*
X157170572Y-83621050D01*
X157179771Y-83609844D01*
X157297454Y-83492163D01*
X157343330Y-83470771D01*
X157349779Y-83470489D01*
X157571672Y-83470489D01*
X157612784Y-83482960D01*
G37*
%TD.AperFunction*%
%TA.AperFunction,Conductor*%
G36*
X161949521Y-81371939D02*
G01*
X161974831Y-81415776D01*
X161975955Y-81428626D01*
X161975955Y-81454041D01*
X161984688Y-81497944D01*
X162017950Y-81547725D01*
X162017951Y-81547726D01*
X162048182Y-81567926D01*
X162078114Y-81608748D01*
X162074803Y-81659258D01*
X162048182Y-81690984D01*
X161982263Y-81735029D01*
X161982262Y-81735030D01*
X161938058Y-81801186D01*
X161926455Y-81859524D01*
X161926455Y-82428919D01*
X161938058Y-82487257D01*
X161982262Y-82553413D01*
X161982263Y-82553414D01*
X162048182Y-82597459D01*
X162078114Y-82638280D01*
X162074803Y-82688791D01*
X162048184Y-82720516D01*
X162017951Y-82740717D01*
X162017950Y-82740718D01*
X161984688Y-82790499D01*
X161975955Y-82834402D01*
X161975955Y-82900500D01*
X161958642Y-82948066D01*
X161914805Y-82973376D01*
X161901955Y-82974500D01*
X161026679Y-82974500D01*
X160979113Y-82957187D01*
X160953803Y-82913350D01*
X160959366Y-82869759D01*
X160983728Y-82816415D01*
X161002164Y-82688189D01*
X160983728Y-82559963D01*
X160929913Y-82442126D01*
X160845080Y-82344222D01*
X160775255Y-82299348D01*
X160736099Y-82274184D01*
X160611803Y-82237689D01*
X160482259Y-82237689D01*
X160357962Y-82274184D01*
X160248985Y-82344220D01*
X160248981Y-82344223D01*
X160160683Y-82446126D01*
X160159336Y-82444959D01*
X160124913Y-82471161D01*
X160102936Y-82474500D01*
X157805837Y-82474500D01*
X157791400Y-82473078D01*
X157771417Y-82469103D01*
X157663921Y-82490485D01*
X157624179Y-82517040D01*
X157583067Y-82529511D01*
X157231078Y-82529511D01*
X157183512Y-82512198D01*
X157178752Y-82507837D01*
X156797441Y-82126526D01*
X156776049Y-82080650D01*
X156789150Y-82031755D01*
X156823034Y-82005198D01*
X156878168Y-81983840D01*
X156878176Y-81983833D01*
X156881678Y-81981830D01*
X156931560Y-81973226D01*
X156932767Y-81973454D01*
X156944989Y-81975885D01*
X156964969Y-81971911D01*
X156979405Y-81970489D01*
X157583067Y-81970489D01*
X157624179Y-81982960D01*
X157654963Y-82003529D01*
X157663922Y-82009515D01*
X157728548Y-82022370D01*
X157728547Y-82022370D01*
X157771416Y-82030897D01*
X157771417Y-82030897D01*
X157791400Y-82026921D01*
X157805837Y-82025500D01*
X158765580Y-82025500D01*
X158780016Y-82026921D01*
X158800000Y-82030897D01*
X158800001Y-82030897D01*
X158804622Y-82029977D01*
X158827132Y-82025500D01*
X158827133Y-82025500D01*
X158907495Y-82009515D01*
X158954521Y-81978093D01*
X158975622Y-81963994D01*
X158975622Y-81963993D01*
X158983636Y-81958639D01*
X158983639Y-81958636D01*
X158998624Y-81948624D01*
X159002705Y-81942515D01*
X159043525Y-81912583D01*
X159064235Y-81909626D01*
X159963044Y-81909626D01*
X160010610Y-81926939D01*
X160018970Y-81935167D01*
X160056161Y-81978089D01*
X160056162Y-81978090D01*
X160056165Y-81978093D01*
X160165145Y-82048130D01*
X160289442Y-82084626D01*
X160418986Y-82084626D01*
X160543283Y-82048130D01*
X160652263Y-81978093D01*
X160737096Y-81880189D01*
X160790911Y-81762352D01*
X160809347Y-81634126D01*
X160790911Y-81505900D01*
X160769660Y-81459367D01*
X160765647Y-81408908D01*
X160795009Y-81367674D01*
X160836972Y-81354626D01*
X161901955Y-81354626D01*
X161949521Y-81371939D01*
G37*
%TD.AperFunction*%
%TA.AperFunction,Conductor*%
G36*
X157383397Y-80005162D02*
G01*
X157398723Y-80016922D01*
X157802271Y-80420470D01*
X157811473Y-80431683D01*
X157822792Y-80448623D01*
X157822793Y-80448624D01*
X157842767Y-80461970D01*
X157842787Y-80461985D01*
X157851167Y-80467583D01*
X157851172Y-80467590D01*
X157851174Y-80467588D01*
X157913922Y-80509515D01*
X157994284Y-80525500D01*
X157994285Y-80525500D01*
X158021416Y-80530897D01*
X158021417Y-80530897D01*
X158041400Y-80526921D01*
X158055837Y-80525500D01*
X158765580Y-80525500D01*
X158780016Y-80526921D01*
X158800000Y-80530897D01*
X158800001Y-80530897D01*
X158804622Y-80529977D01*
X158827132Y-80525500D01*
X158827133Y-80525500D01*
X158907495Y-80509515D01*
X158933419Y-80492193D01*
X158974531Y-80479722D01*
X161915269Y-80479722D01*
X161962835Y-80497035D01*
X161983637Y-80525406D01*
X161984688Y-80527944D01*
X162002092Y-80553992D01*
X162017951Y-80577726D01*
X162067733Y-80610989D01*
X162096162Y-80616644D01*
X162139437Y-80642904D01*
X162155707Y-80690837D01*
X162137361Y-80738014D01*
X162096162Y-80761799D01*
X162086287Y-80763764D01*
X162067732Y-80767455D01*
X162032263Y-80791155D01*
X161991151Y-80803626D01*
X159005294Y-80803626D01*
X158990857Y-80802204D01*
X158970874Y-80798229D01*
X158970873Y-80798229D01*
X158943740Y-80803625D01*
X158943741Y-80803626D01*
X158863378Y-80819611D01*
X158797179Y-80863844D01*
X158772250Y-80880501D01*
X158772248Y-80880503D01*
X158760927Y-80897445D01*
X158751728Y-80908654D01*
X158707559Y-80952825D01*
X158661683Y-80974218D01*
X158655232Y-80974500D01*
X157924768Y-80974500D01*
X157877202Y-80957187D01*
X157872442Y-80952826D01*
X157824156Y-80904540D01*
X157814953Y-80893325D01*
X157803637Y-80876389D01*
X157803635Y-80876387D01*
X157786792Y-80865133D01*
X157783655Y-80863036D01*
X157783652Y-80863034D01*
X157718664Y-80819611D01*
X157712506Y-80815496D01*
X157712505Y-80815495D01*
X157712504Y-80815495D01*
X157652096Y-80803479D01*
X157632144Y-80799511D01*
X157632143Y-80799511D01*
X157605012Y-80794114D01*
X157605011Y-80794114D01*
X157585028Y-80798089D01*
X157570591Y-80799511D01*
X157308362Y-80799511D01*
X157260796Y-80782198D01*
X157256036Y-80777837D01*
X157172163Y-80693964D01*
X157150771Y-80648088D01*
X157150489Y-80641638D01*
X157150489Y-80405782D01*
X157162959Y-80364672D01*
X157182482Y-80335452D01*
X157191682Y-80324240D01*
X157218915Y-80297009D01*
X157233840Y-80278168D01*
X157272397Y-80178638D01*
X157272397Y-80071900D01*
X157272397Y-80069248D01*
X157289710Y-80021682D01*
X157333547Y-79996372D01*
X157383397Y-80005162D01*
G37*
%TD.AperFunction*%
%TA.AperFunction,Conductor*%
G36*
X147222824Y-73777813D02*
G01*
X147248134Y-73821650D01*
X147239344Y-73871500D01*
X147220306Y-73893208D01*
X147124628Y-73966623D01*
X147124623Y-73966628D01*
X147031499Y-74087990D01*
X147031497Y-74087994D01*
X146972954Y-74229329D01*
X146958000Y-74342924D01*
X146958000Y-75300000D01*
X148881999Y-75300000D01*
X148881999Y-74342924D01*
X148867045Y-74229331D01*
X148867044Y-74229327D01*
X148808502Y-74087994D01*
X148808500Y-74087990D01*
X148715376Y-73966628D01*
X148715371Y-73966623D01*
X148619694Y-73893208D01*
X148592496Y-73850517D01*
X148599103Y-73800331D01*
X148636423Y-73766133D01*
X148664742Y-73760500D01*
X149814309Y-73760500D01*
X149861875Y-73777813D01*
X149887185Y-73821650D01*
X149878395Y-73871500D01*
X149841456Y-73903341D01*
X149816057Y-73913356D01*
X149699639Y-74001638D01*
X149699638Y-74001639D01*
X149611356Y-74118057D01*
X149557757Y-74253976D01*
X149547500Y-74339387D01*
X149547500Y-76460612D01*
X149547501Y-76460614D01*
X149557755Y-76546016D01*
X149557756Y-76546020D01*
X149557756Y-76546022D01*
X149557757Y-76546023D01*
X149567476Y-76570668D01*
X149611356Y-76681942D01*
X149634157Y-76712009D01*
X149699639Y-76798361D01*
X149816057Y-76886643D01*
X149951977Y-76940243D01*
X150037389Y-76950500D01*
X150882610Y-76950499D01*
X150882612Y-76950499D01*
X150884820Y-76950367D01*
X150884894Y-76951606D01*
X150930279Y-76962151D01*
X150942214Y-76971830D01*
X151242826Y-77272442D01*
X151264218Y-77318318D01*
X151264500Y-77324768D01*
X151264500Y-77524281D01*
X151263078Y-77538717D01*
X151259103Y-77558702D01*
X151264500Y-77585834D01*
X151264500Y-77585835D01*
X151280485Y-77666197D01*
X151313652Y-77715835D01*
X151341377Y-77757327D01*
X151358314Y-77768644D01*
X151369529Y-77777847D01*
X152552151Y-78960469D01*
X152561353Y-78971682D01*
X152572673Y-78988623D01*
X152572674Y-78988624D01*
X152592649Y-79001971D01*
X152592653Y-79001974D01*
X152595675Y-79003993D01*
X152595676Y-79003994D01*
X152663803Y-79049515D01*
X152771298Y-79070897D01*
X152791281Y-79066921D01*
X152805718Y-79065500D01*
X155639923Y-79065500D01*
X155687489Y-79082813D01*
X155712799Y-79126650D01*
X155704009Y-79176500D01*
X155692249Y-79191826D01*
X155581085Y-79302990D01*
X155566161Y-79321830D01*
X155566159Y-79321834D01*
X155527603Y-79421360D01*
X155527603Y-79528101D01*
X155557823Y-79606109D01*
X155566160Y-79627630D01*
X155581084Y-79646471D01*
X155832281Y-79897667D01*
X155851122Y-79912592D01*
X155950652Y-79951149D01*
X155950653Y-79951149D01*
X156057389Y-79951149D01*
X156057390Y-79951149D01*
X156156920Y-79912592D01*
X156175761Y-79897668D01*
X156497667Y-79575761D01*
X156512592Y-79556920D01*
X156551149Y-79457390D01*
X156551149Y-79350652D01*
X156548765Y-79344500D01*
X156547725Y-79293893D01*
X156579459Y-79254456D01*
X156629118Y-79244644D01*
X156644499Y-79248765D01*
X156650652Y-79251149D01*
X156650653Y-79251149D01*
X156757389Y-79251149D01*
X156757390Y-79251149D01*
X156856920Y-79212592D01*
X156875761Y-79197668D01*
X157197667Y-78875761D01*
X157212592Y-78856920D01*
X157251149Y-78757390D01*
X157251149Y-78650652D01*
X157212592Y-78551122D01*
X157197668Y-78532281D01*
X156946471Y-78281085D01*
X156927630Y-78266160D01*
X156898257Y-78254781D01*
X156828101Y-78227603D01*
X156828100Y-78227603D01*
X156721362Y-78227603D01*
X156721360Y-78227603D01*
X156621833Y-78266159D01*
X156602992Y-78281083D01*
X156602985Y-78281089D01*
X156473522Y-78410553D01*
X156427646Y-78431945D01*
X156378751Y-78418844D01*
X156368870Y-78410553D01*
X156197846Y-78239529D01*
X156188643Y-78228314D01*
X156177327Y-78211378D01*
X156177325Y-78211376D01*
X156157345Y-78198026D01*
X156157340Y-78198021D01*
X156128166Y-78178528D01*
X156086196Y-78150485D01*
X156005834Y-78134500D01*
X156005833Y-78134500D01*
X156005831Y-78134499D01*
X155978702Y-78129103D01*
X155978701Y-78129103D01*
X155958718Y-78133078D01*
X155944281Y-78134500D01*
X153073470Y-78134500D01*
X153025904Y-78117187D01*
X153021144Y-78112826D01*
X152251292Y-77342974D01*
X152229900Y-77297098D01*
X152243001Y-77248203D01*
X152251282Y-77238333D01*
X152517785Y-76971830D01*
X152563659Y-76950439D01*
X152575161Y-76950630D01*
X152575177Y-76950368D01*
X152577377Y-76950498D01*
X152577389Y-76950500D01*
X153422610Y-76950499D01*
X153422612Y-76950499D01*
X153422612Y-76950498D01*
X153487963Y-76942651D01*
X153508016Y-76940244D01*
X153508017Y-76940243D01*
X153508023Y-76940243D01*
X153643943Y-76886643D01*
X153760361Y-76798361D01*
X153848643Y-76681943D01*
X153902243Y-76546023D01*
X153912500Y-76460611D01*
X153912499Y-74339390D01*
X153902348Y-74254850D01*
X153902244Y-74253983D01*
X153902243Y-74253979D01*
X153902243Y-74253977D01*
X153848643Y-74118057D01*
X153760361Y-74001639D01*
X153714186Y-73966623D01*
X153643942Y-73913356D01*
X153618544Y-73903341D01*
X153580645Y-73869785D01*
X153573182Y-73819719D01*
X153599647Y-73776570D01*
X153645691Y-73760500D01*
X161587689Y-73760500D01*
X161591429Y-73760997D01*
X161597225Y-73760704D01*
X161605802Y-73760767D01*
X161705792Y-73767336D01*
X161722602Y-73770418D01*
X161814285Y-73798499D01*
X161829947Y-73805365D01*
X161912720Y-73853736D01*
X161926391Y-73864013D01*
X161995857Y-73930102D01*
X162006802Y-73943244D01*
X162059234Y-74023505D01*
X162066871Y-74038808D01*
X162099480Y-74128971D01*
X162103399Y-74145619D01*
X162115006Y-74245760D01*
X162115498Y-74254297D01*
X162115495Y-74267509D01*
X162115500Y-74267534D01*
X162115500Y-79212396D01*
X162114634Y-79216751D01*
X162114634Y-79229200D01*
X162115500Y-79231288D01*
X162117964Y-79237236D01*
X162126000Y-79240565D01*
X162138462Y-79240565D01*
X162142810Y-79239700D01*
X166652000Y-79239700D01*
X166699566Y-79257013D01*
X166724876Y-79300850D01*
X166726000Y-79313700D01*
X166726000Y-79714722D01*
X166708687Y-79762288D01*
X166664850Y-79787598D01*
X166652000Y-79788722D01*
X162111635Y-79788722D01*
X162089684Y-79793088D01*
X162067732Y-79797455D01*
X162017951Y-79830717D01*
X162017950Y-79830718D01*
X161984688Y-79880499D01*
X161983637Y-79883038D01*
X161981255Y-79885636D01*
X161980639Y-79886560D01*
X161980496Y-79886465D01*
X161949441Y-79920359D01*
X161915269Y-79928722D01*
X158880198Y-79928722D01*
X158865761Y-79927300D01*
X158845778Y-79923325D01*
X158845777Y-79923325D01*
X158818646Y-79928722D01*
X158818645Y-79928722D01*
X158792915Y-79933840D01*
X158738282Y-79944707D01*
X158712359Y-79962029D01*
X158671247Y-79974500D01*
X158166185Y-79974500D01*
X158118619Y-79957187D01*
X158113859Y-79952826D01*
X157890804Y-79729771D01*
X157869412Y-79683895D01*
X157882513Y-79635000D01*
X157890800Y-79625123D01*
X157918915Y-79597009D01*
X157933840Y-79578168D01*
X157972397Y-79478638D01*
X157972397Y-79371900D01*
X157933840Y-79272370D01*
X157918916Y-79253529D01*
X157667719Y-79002333D01*
X157648878Y-78987408D01*
X157608283Y-78971682D01*
X157549349Y-78948851D01*
X157549348Y-78948851D01*
X157442610Y-78948851D01*
X157442608Y-78948851D01*
X157343081Y-78987407D01*
X157324240Y-79002331D01*
X157324233Y-79002337D01*
X157002333Y-79324238D01*
X156987409Y-79343078D01*
X156987407Y-79343082D01*
X156948851Y-79442608D01*
X156948851Y-79442610D01*
X156948851Y-79549348D01*
X156951235Y-79555501D01*
X156952273Y-79606109D01*
X156920537Y-79645545D01*
X156870878Y-79655355D01*
X156855504Y-79651235D01*
X156849348Y-79648851D01*
X156742610Y-79648851D01*
X156742608Y-79648851D01*
X156643081Y-79687407D01*
X156624240Y-79702331D01*
X156624233Y-79702337D01*
X156302333Y-80024238D01*
X156287409Y-80043078D01*
X156287407Y-80043082D01*
X156248851Y-80142608D01*
X156248851Y-80216355D01*
X156231538Y-80263921D01*
X156187701Y-80289231D01*
X156148121Y-80285359D01*
X156128100Y-80277603D01*
X156021362Y-80277603D01*
X156021360Y-80277603D01*
X155921833Y-80316159D01*
X155902992Y-80331083D01*
X155902985Y-80331089D01*
X155773522Y-80460553D01*
X155727646Y-80481945D01*
X155678751Y-80468844D01*
X155668870Y-80460553D01*
X154997846Y-79789529D01*
X154988643Y-79778314D01*
X154977327Y-79761378D01*
X154977325Y-79761376D01*
X154957345Y-79748026D01*
X154957340Y-79748021D01*
X154928166Y-79728528D01*
X154886196Y-79700485D01*
X154805834Y-79684500D01*
X154805833Y-79684500D01*
X154805831Y-79684499D01*
X154778702Y-79679103D01*
X154778701Y-79679103D01*
X154758718Y-79683078D01*
X154744281Y-79684500D01*
X146873470Y-79684500D01*
X146825904Y-79667187D01*
X146821144Y-79662826D01*
X144597174Y-77438856D01*
X144575782Y-77392980D01*
X144575500Y-77386530D01*
X144575500Y-77324767D01*
X144592813Y-77277201D01*
X144597163Y-77272452D01*
X144897785Y-76971830D01*
X144943659Y-76950439D01*
X144955161Y-76950630D01*
X144955177Y-76950368D01*
X144957377Y-76950498D01*
X144957389Y-76950500D01*
X145802610Y-76950499D01*
X145802612Y-76950499D01*
X145802612Y-76950498D01*
X145867963Y-76942651D01*
X145888016Y-76940244D01*
X145888017Y-76940243D01*
X145888023Y-76940243D01*
X146023943Y-76886643D01*
X146140361Y-76798361D01*
X146228643Y-76681943D01*
X146282243Y-76546023D01*
X146292500Y-76460611D01*
X146292500Y-75500000D01*
X146958001Y-75500000D01*
X146958001Y-76457075D01*
X146972954Y-76570668D01*
X146972955Y-76570672D01*
X147031497Y-76712005D01*
X147031499Y-76712009D01*
X147124623Y-76833371D01*
X147124628Y-76833376D01*
X147245990Y-76926500D01*
X147245994Y-76926502D01*
X147387329Y-76985045D01*
X147500924Y-76999999D01*
X147820000Y-76999999D01*
X147820000Y-76590764D01*
X147884237Y-76600000D01*
X147955763Y-76600000D01*
X148020000Y-76590764D01*
X148020000Y-76999999D01*
X148339075Y-76999999D01*
X148452668Y-76985045D01*
X148452672Y-76985044D01*
X148594005Y-76926502D01*
X148594009Y-76926500D01*
X148715371Y-76833376D01*
X148715376Y-76833371D01*
X148808500Y-76712009D01*
X148808502Y-76712005D01*
X148867045Y-76570670D01*
X148882000Y-76457075D01*
X148882000Y-75500000D01*
X148020000Y-75500000D01*
X148020000Y-75609235D01*
X147955763Y-75600000D01*
X147884237Y-75600000D01*
X147820000Y-75609235D01*
X147820000Y-75500000D01*
X146958001Y-75500000D01*
X146292500Y-75500000D01*
X146292499Y-74339390D01*
X146282348Y-74254850D01*
X146282244Y-74253983D01*
X146282243Y-74253979D01*
X146282243Y-74253977D01*
X146228643Y-74118057D01*
X146140361Y-74001639D01*
X146094186Y-73966623D01*
X146023942Y-73913356D01*
X145998544Y-73903341D01*
X145960645Y-73869785D01*
X145953182Y-73819719D01*
X145979647Y-73776570D01*
X146025691Y-73760500D01*
X147175258Y-73760500D01*
X147222824Y-73777813D01*
G37*
%TD.AperFunction*%
%TD*%
M02*
