%TF.GenerationSoftware,KiCad,Pcbnew,7.0.10*%
%TF.CreationDate,2024-02-18T21:52:23+13:00*%
%TF.ProjectId,dvi-sock,6476692d-736f-4636-9b2e-6b696361645f,rev?*%
%TF.SameCoordinates,Original*%
%TF.FileFunction,Legend,Bot*%
%TF.FilePolarity,Positive*%
%FSLAX46Y46*%
G04 Gerber Fmt 4.6, Leading zero omitted, Abs format (unit mm)*
G04 Created by KiCad (PCBNEW 7.0.10) date 2024-02-18 21:52:23*
%MOMM*%
%LPD*%
G01*
G04 APERTURE LIST*
%ADD10C,0.130000*%
G04 APERTURE END LIST*
D10*
X143688478Y-77842857D02*
X143640859Y-77757143D01*
X143640859Y-77757143D02*
X143640859Y-77628571D01*
X143640859Y-77628571D02*
X143688478Y-77500000D01*
X143688478Y-77500000D02*
X143783716Y-77414285D01*
X143783716Y-77414285D02*
X143878954Y-77371428D01*
X143878954Y-77371428D02*
X144069430Y-77328571D01*
X144069430Y-77328571D02*
X144212287Y-77328571D01*
X144212287Y-77328571D02*
X144402763Y-77371428D01*
X144402763Y-77371428D02*
X144498001Y-77414285D01*
X144498001Y-77414285D02*
X144593240Y-77500000D01*
X144593240Y-77500000D02*
X144640859Y-77628571D01*
X144640859Y-77628571D02*
X144640859Y-77714285D01*
X144640859Y-77714285D02*
X144593240Y-77842857D01*
X144593240Y-77842857D02*
X144545620Y-77885714D01*
X144545620Y-77885714D02*
X144212287Y-77885714D01*
X144212287Y-77885714D02*
X144212287Y-77714285D01*
X144640859Y-78271428D02*
X143640859Y-78271428D01*
X143640859Y-78271428D02*
X143640859Y-78614285D01*
X143640859Y-78614285D02*
X143688478Y-78700000D01*
X143688478Y-78700000D02*
X143736097Y-78742857D01*
X143736097Y-78742857D02*
X143831335Y-78785714D01*
X143831335Y-78785714D02*
X143974192Y-78785714D01*
X143974192Y-78785714D02*
X144069430Y-78742857D01*
X144069430Y-78742857D02*
X144117049Y-78700000D01*
X144117049Y-78700000D02*
X144164668Y-78614285D01*
X144164668Y-78614285D02*
X144164668Y-78271428D01*
X144640859Y-79642857D02*
X144640859Y-79128571D01*
X144640859Y-79385714D02*
X143640859Y-79385714D01*
X143640859Y-79385714D02*
X143783716Y-79300000D01*
X143783716Y-79300000D02*
X143878954Y-79214285D01*
X143878954Y-79214285D02*
X143926573Y-79128571D01*
X143736097Y-79985714D02*
X143688478Y-80028571D01*
X143688478Y-80028571D02*
X143640859Y-80114286D01*
X143640859Y-80114286D02*
X143640859Y-80328571D01*
X143640859Y-80328571D02*
X143688478Y-80414286D01*
X143688478Y-80414286D02*
X143736097Y-80457143D01*
X143736097Y-80457143D02*
X143831335Y-80500000D01*
X143831335Y-80500000D02*
X143926573Y-80500000D01*
X143926573Y-80500000D02*
X144069430Y-80457143D01*
X144069430Y-80457143D02*
X144640859Y-79942857D01*
X144640859Y-79942857D02*
X144640859Y-80500000D01*
X144545620Y-80885714D02*
X144593240Y-80928571D01*
X144593240Y-80928571D02*
X144640859Y-80885714D01*
X144640859Y-80885714D02*
X144593240Y-80842857D01*
X144593240Y-80842857D02*
X144545620Y-80885714D01*
X144545620Y-80885714D02*
X144640859Y-80885714D01*
X144021811Y-80885714D02*
X144069430Y-80928571D01*
X144069430Y-80928571D02*
X144117049Y-80885714D01*
X144117049Y-80885714D02*
X144069430Y-80842857D01*
X144069430Y-80842857D02*
X144021811Y-80885714D01*
X144021811Y-80885714D02*
X144117049Y-80885714D01*
X144640859Y-81999999D02*
X143640859Y-81999999D01*
X143640859Y-81999999D02*
X143640859Y-82214285D01*
X143640859Y-82214285D02*
X143688478Y-82342856D01*
X143688478Y-82342856D02*
X143783716Y-82428571D01*
X143783716Y-82428571D02*
X143878954Y-82471428D01*
X143878954Y-82471428D02*
X144069430Y-82514285D01*
X144069430Y-82514285D02*
X144212287Y-82514285D01*
X144212287Y-82514285D02*
X144402763Y-82471428D01*
X144402763Y-82471428D02*
X144498001Y-82428571D01*
X144498001Y-82428571D02*
X144593240Y-82342856D01*
X144593240Y-82342856D02*
X144640859Y-82214285D01*
X144640859Y-82214285D02*
X144640859Y-81999999D01*
X143640859Y-83071428D02*
X143640859Y-83157142D01*
X143640859Y-83157142D02*
X143688478Y-83242856D01*
X143688478Y-83242856D02*
X143736097Y-83285714D01*
X143736097Y-83285714D02*
X143831335Y-83328571D01*
X143831335Y-83328571D02*
X144021811Y-83371428D01*
X144021811Y-83371428D02*
X144259906Y-83371428D01*
X144259906Y-83371428D02*
X144450382Y-83328571D01*
X144450382Y-83328571D02*
X144545620Y-83285714D01*
X144545620Y-83285714D02*
X144593240Y-83242856D01*
X144593240Y-83242856D02*
X144640859Y-83157142D01*
X144640859Y-83157142D02*
X144640859Y-83071428D01*
X144640859Y-83071428D02*
X144593240Y-82985714D01*
X144593240Y-82985714D02*
X144545620Y-82942856D01*
X144545620Y-82942856D02*
X144450382Y-82899999D01*
X144450382Y-82899999D02*
X144259906Y-82857142D01*
X144259906Y-82857142D02*
X144021811Y-82857142D01*
X144021811Y-82857142D02*
X143831335Y-82899999D01*
X143831335Y-82899999D02*
X143736097Y-82942856D01*
X143736097Y-82942856D02*
X143688478Y-82985714D01*
X143688478Y-82985714D02*
X143640859Y-83071428D01*
X144259906Y-83757142D02*
X144259906Y-84442857D01*
X144640859Y-84099999D02*
X143878954Y-84099999D01*
X143688478Y-86028571D02*
X143640859Y-85942857D01*
X143640859Y-85942857D02*
X143640859Y-85814285D01*
X143640859Y-85814285D02*
X143688478Y-85685714D01*
X143688478Y-85685714D02*
X143783716Y-85599999D01*
X143783716Y-85599999D02*
X143878954Y-85557142D01*
X143878954Y-85557142D02*
X144069430Y-85514285D01*
X144069430Y-85514285D02*
X144212287Y-85514285D01*
X144212287Y-85514285D02*
X144402763Y-85557142D01*
X144402763Y-85557142D02*
X144498001Y-85599999D01*
X144498001Y-85599999D02*
X144593240Y-85685714D01*
X144593240Y-85685714D02*
X144640859Y-85814285D01*
X144640859Y-85814285D02*
X144640859Y-85899999D01*
X144640859Y-85899999D02*
X144593240Y-86028571D01*
X144593240Y-86028571D02*
X144545620Y-86071428D01*
X144545620Y-86071428D02*
X144212287Y-86071428D01*
X144212287Y-86071428D02*
X144212287Y-85899999D01*
X144640859Y-86457142D02*
X143640859Y-86457142D01*
X143640859Y-86457142D02*
X143640859Y-86799999D01*
X143640859Y-86799999D02*
X143688478Y-86885714D01*
X143688478Y-86885714D02*
X143736097Y-86928571D01*
X143736097Y-86928571D02*
X143831335Y-86971428D01*
X143831335Y-86971428D02*
X143974192Y-86971428D01*
X143974192Y-86971428D02*
X144069430Y-86928571D01*
X144069430Y-86928571D02*
X144117049Y-86885714D01*
X144117049Y-86885714D02*
X144164668Y-86799999D01*
X144164668Y-86799999D02*
X144164668Y-86457142D01*
X144640859Y-87828571D02*
X144640859Y-87314285D01*
X144640859Y-87571428D02*
X143640859Y-87571428D01*
X143640859Y-87571428D02*
X143783716Y-87485714D01*
X143783716Y-87485714D02*
X143878954Y-87399999D01*
X143878954Y-87399999D02*
X143926573Y-87314285D01*
X143640859Y-88600000D02*
X143640859Y-88428571D01*
X143640859Y-88428571D02*
X143688478Y-88342857D01*
X143688478Y-88342857D02*
X143736097Y-88300000D01*
X143736097Y-88300000D02*
X143878954Y-88214285D01*
X143878954Y-88214285D02*
X144069430Y-88171428D01*
X144069430Y-88171428D02*
X144450382Y-88171428D01*
X144450382Y-88171428D02*
X144545620Y-88214285D01*
X144545620Y-88214285D02*
X144593240Y-88257142D01*
X144593240Y-88257142D02*
X144640859Y-88342857D01*
X144640859Y-88342857D02*
X144640859Y-88514285D01*
X144640859Y-88514285D02*
X144593240Y-88600000D01*
X144593240Y-88600000D02*
X144545620Y-88642857D01*
X144545620Y-88642857D02*
X144450382Y-88685714D01*
X144450382Y-88685714D02*
X144212287Y-88685714D01*
X144212287Y-88685714D02*
X144117049Y-88642857D01*
X144117049Y-88642857D02*
X144069430Y-88600000D01*
X144069430Y-88600000D02*
X144021811Y-88514285D01*
X144021811Y-88514285D02*
X144021811Y-88342857D01*
X144021811Y-88342857D02*
X144069430Y-88257142D01*
X144069430Y-88257142D02*
X144117049Y-88214285D01*
X144117049Y-88214285D02*
X144212287Y-88171428D01*
X144545620Y-89071428D02*
X144593240Y-89114285D01*
X144593240Y-89114285D02*
X144640859Y-89071428D01*
X144640859Y-89071428D02*
X144593240Y-89028571D01*
X144593240Y-89028571D02*
X144545620Y-89071428D01*
X144545620Y-89071428D02*
X144640859Y-89071428D01*
X144021811Y-89071428D02*
X144069430Y-89114285D01*
X144069430Y-89114285D02*
X144117049Y-89071428D01*
X144117049Y-89071428D02*
X144069430Y-89028571D01*
X144069430Y-89028571D02*
X144021811Y-89071428D01*
X144021811Y-89071428D02*
X144117049Y-89071428D01*
X144640859Y-90185713D02*
X143640859Y-90185713D01*
X143640859Y-90185713D02*
X143640859Y-90399999D01*
X143640859Y-90399999D02*
X143688478Y-90528570D01*
X143688478Y-90528570D02*
X143783716Y-90614285D01*
X143783716Y-90614285D02*
X143878954Y-90657142D01*
X143878954Y-90657142D02*
X144069430Y-90699999D01*
X144069430Y-90699999D02*
X144212287Y-90699999D01*
X144212287Y-90699999D02*
X144402763Y-90657142D01*
X144402763Y-90657142D02*
X144498001Y-90614285D01*
X144498001Y-90614285D02*
X144593240Y-90528570D01*
X144593240Y-90528570D02*
X144640859Y-90399999D01*
X144640859Y-90399999D02*
X144640859Y-90185713D01*
X143736097Y-91042856D02*
X143688478Y-91085713D01*
X143688478Y-91085713D02*
X143640859Y-91171428D01*
X143640859Y-91171428D02*
X143640859Y-91385713D01*
X143640859Y-91385713D02*
X143688478Y-91471428D01*
X143688478Y-91471428D02*
X143736097Y-91514285D01*
X143736097Y-91514285D02*
X143831335Y-91557142D01*
X143831335Y-91557142D02*
X143926573Y-91557142D01*
X143926573Y-91557142D02*
X144069430Y-91514285D01*
X144069430Y-91514285D02*
X144640859Y-90999999D01*
X144640859Y-90999999D02*
X144640859Y-91557142D01*
X144259906Y-91942856D02*
X144259906Y-92628571D01*
X144640859Y-92285713D02*
X143878954Y-92285713D01*
X145298478Y-77842857D02*
X145250859Y-77757143D01*
X145250859Y-77757143D02*
X145250859Y-77628571D01*
X145250859Y-77628571D02*
X145298478Y-77500000D01*
X145298478Y-77500000D02*
X145393716Y-77414285D01*
X145393716Y-77414285D02*
X145488954Y-77371428D01*
X145488954Y-77371428D02*
X145679430Y-77328571D01*
X145679430Y-77328571D02*
X145822287Y-77328571D01*
X145822287Y-77328571D02*
X146012763Y-77371428D01*
X146012763Y-77371428D02*
X146108001Y-77414285D01*
X146108001Y-77414285D02*
X146203240Y-77500000D01*
X146203240Y-77500000D02*
X146250859Y-77628571D01*
X146250859Y-77628571D02*
X146250859Y-77714285D01*
X146250859Y-77714285D02*
X146203240Y-77842857D01*
X146203240Y-77842857D02*
X146155620Y-77885714D01*
X146155620Y-77885714D02*
X145822287Y-77885714D01*
X145822287Y-77885714D02*
X145822287Y-77714285D01*
X146250859Y-78271428D02*
X145250859Y-78271428D01*
X145250859Y-78271428D02*
X145250859Y-78614285D01*
X145250859Y-78614285D02*
X145298478Y-78700000D01*
X145298478Y-78700000D02*
X145346097Y-78742857D01*
X145346097Y-78742857D02*
X145441335Y-78785714D01*
X145441335Y-78785714D02*
X145584192Y-78785714D01*
X145584192Y-78785714D02*
X145679430Y-78742857D01*
X145679430Y-78742857D02*
X145727049Y-78700000D01*
X145727049Y-78700000D02*
X145774668Y-78614285D01*
X145774668Y-78614285D02*
X145774668Y-78271428D01*
X146250859Y-79642857D02*
X146250859Y-79128571D01*
X146250859Y-79385714D02*
X145250859Y-79385714D01*
X145250859Y-79385714D02*
X145393716Y-79300000D01*
X145393716Y-79300000D02*
X145488954Y-79214285D01*
X145488954Y-79214285D02*
X145536573Y-79128571D01*
X145250859Y-79942857D02*
X145250859Y-80500000D01*
X145250859Y-80500000D02*
X145631811Y-80200000D01*
X145631811Y-80200000D02*
X145631811Y-80328571D01*
X145631811Y-80328571D02*
X145679430Y-80414286D01*
X145679430Y-80414286D02*
X145727049Y-80457143D01*
X145727049Y-80457143D02*
X145822287Y-80500000D01*
X145822287Y-80500000D02*
X146060382Y-80500000D01*
X146060382Y-80500000D02*
X146155620Y-80457143D01*
X146155620Y-80457143D02*
X146203240Y-80414286D01*
X146203240Y-80414286D02*
X146250859Y-80328571D01*
X146250859Y-80328571D02*
X146250859Y-80071428D01*
X146250859Y-80071428D02*
X146203240Y-79985714D01*
X146203240Y-79985714D02*
X146155620Y-79942857D01*
X146155620Y-80885714D02*
X146203240Y-80928571D01*
X146203240Y-80928571D02*
X146250859Y-80885714D01*
X146250859Y-80885714D02*
X146203240Y-80842857D01*
X146203240Y-80842857D02*
X146155620Y-80885714D01*
X146155620Y-80885714D02*
X146250859Y-80885714D01*
X145631811Y-80885714D02*
X145679430Y-80928571D01*
X145679430Y-80928571D02*
X145727049Y-80885714D01*
X145727049Y-80885714D02*
X145679430Y-80842857D01*
X145679430Y-80842857D02*
X145631811Y-80885714D01*
X145631811Y-80885714D02*
X145727049Y-80885714D01*
X146250859Y-81999999D02*
X145250859Y-81999999D01*
X145250859Y-81999999D02*
X145250859Y-82214285D01*
X145250859Y-82214285D02*
X145298478Y-82342856D01*
X145298478Y-82342856D02*
X145393716Y-82428571D01*
X145393716Y-82428571D02*
X145488954Y-82471428D01*
X145488954Y-82471428D02*
X145679430Y-82514285D01*
X145679430Y-82514285D02*
X145822287Y-82514285D01*
X145822287Y-82514285D02*
X146012763Y-82471428D01*
X146012763Y-82471428D02*
X146108001Y-82428571D01*
X146108001Y-82428571D02*
X146203240Y-82342856D01*
X146203240Y-82342856D02*
X146250859Y-82214285D01*
X146250859Y-82214285D02*
X146250859Y-81999999D01*
X145250859Y-83071428D02*
X145250859Y-83157142D01*
X145250859Y-83157142D02*
X145298478Y-83242856D01*
X145298478Y-83242856D02*
X145346097Y-83285714D01*
X145346097Y-83285714D02*
X145441335Y-83328571D01*
X145441335Y-83328571D02*
X145631811Y-83371428D01*
X145631811Y-83371428D02*
X145869906Y-83371428D01*
X145869906Y-83371428D02*
X146060382Y-83328571D01*
X146060382Y-83328571D02*
X146155620Y-83285714D01*
X146155620Y-83285714D02*
X146203240Y-83242856D01*
X146203240Y-83242856D02*
X146250859Y-83157142D01*
X146250859Y-83157142D02*
X146250859Y-83071428D01*
X146250859Y-83071428D02*
X146203240Y-82985714D01*
X146203240Y-82985714D02*
X146155620Y-82942856D01*
X146155620Y-82942856D02*
X146060382Y-82899999D01*
X146060382Y-82899999D02*
X145869906Y-82857142D01*
X145869906Y-82857142D02*
X145631811Y-82857142D01*
X145631811Y-82857142D02*
X145441335Y-82899999D01*
X145441335Y-82899999D02*
X145346097Y-82942856D01*
X145346097Y-82942856D02*
X145298478Y-82985714D01*
X145298478Y-82985714D02*
X145250859Y-83071428D01*
X145869906Y-83757142D02*
X145869906Y-84442857D01*
X145298478Y-86028571D02*
X145250859Y-85942857D01*
X145250859Y-85942857D02*
X145250859Y-85814285D01*
X145250859Y-85814285D02*
X145298478Y-85685714D01*
X145298478Y-85685714D02*
X145393716Y-85599999D01*
X145393716Y-85599999D02*
X145488954Y-85557142D01*
X145488954Y-85557142D02*
X145679430Y-85514285D01*
X145679430Y-85514285D02*
X145822287Y-85514285D01*
X145822287Y-85514285D02*
X146012763Y-85557142D01*
X146012763Y-85557142D02*
X146108001Y-85599999D01*
X146108001Y-85599999D02*
X146203240Y-85685714D01*
X146203240Y-85685714D02*
X146250859Y-85814285D01*
X146250859Y-85814285D02*
X146250859Y-85899999D01*
X146250859Y-85899999D02*
X146203240Y-86028571D01*
X146203240Y-86028571D02*
X146155620Y-86071428D01*
X146155620Y-86071428D02*
X145822287Y-86071428D01*
X145822287Y-86071428D02*
X145822287Y-85899999D01*
X146250859Y-86457142D02*
X145250859Y-86457142D01*
X145250859Y-86457142D02*
X145250859Y-86799999D01*
X145250859Y-86799999D02*
X145298478Y-86885714D01*
X145298478Y-86885714D02*
X145346097Y-86928571D01*
X145346097Y-86928571D02*
X145441335Y-86971428D01*
X145441335Y-86971428D02*
X145584192Y-86971428D01*
X145584192Y-86971428D02*
X145679430Y-86928571D01*
X145679430Y-86928571D02*
X145727049Y-86885714D01*
X145727049Y-86885714D02*
X145774668Y-86799999D01*
X145774668Y-86799999D02*
X145774668Y-86457142D01*
X146250859Y-87828571D02*
X146250859Y-87314285D01*
X146250859Y-87571428D02*
X145250859Y-87571428D01*
X145250859Y-87571428D02*
X145393716Y-87485714D01*
X145393716Y-87485714D02*
X145488954Y-87399999D01*
X145488954Y-87399999D02*
X145536573Y-87314285D01*
X145250859Y-88128571D02*
X145250859Y-88728571D01*
X145250859Y-88728571D02*
X146250859Y-88342857D01*
X146155620Y-89071428D02*
X146203240Y-89114285D01*
X146203240Y-89114285D02*
X146250859Y-89071428D01*
X146250859Y-89071428D02*
X146203240Y-89028571D01*
X146203240Y-89028571D02*
X146155620Y-89071428D01*
X146155620Y-89071428D02*
X146250859Y-89071428D01*
X145631811Y-89071428D02*
X145679430Y-89114285D01*
X145679430Y-89114285D02*
X145727049Y-89071428D01*
X145727049Y-89071428D02*
X145679430Y-89028571D01*
X145679430Y-89028571D02*
X145631811Y-89071428D01*
X145631811Y-89071428D02*
X145727049Y-89071428D01*
X146250859Y-90185713D02*
X145250859Y-90185713D01*
X145250859Y-90185713D02*
X145250859Y-90399999D01*
X145250859Y-90399999D02*
X145298478Y-90528570D01*
X145298478Y-90528570D02*
X145393716Y-90614285D01*
X145393716Y-90614285D02*
X145488954Y-90657142D01*
X145488954Y-90657142D02*
X145679430Y-90699999D01*
X145679430Y-90699999D02*
X145822287Y-90699999D01*
X145822287Y-90699999D02*
X146012763Y-90657142D01*
X146012763Y-90657142D02*
X146108001Y-90614285D01*
X146108001Y-90614285D02*
X146203240Y-90528570D01*
X146203240Y-90528570D02*
X146250859Y-90399999D01*
X146250859Y-90399999D02*
X146250859Y-90185713D01*
X145346097Y-91042856D02*
X145298478Y-91085713D01*
X145298478Y-91085713D02*
X145250859Y-91171428D01*
X145250859Y-91171428D02*
X145250859Y-91385713D01*
X145250859Y-91385713D02*
X145298478Y-91471428D01*
X145298478Y-91471428D02*
X145346097Y-91514285D01*
X145346097Y-91514285D02*
X145441335Y-91557142D01*
X145441335Y-91557142D02*
X145536573Y-91557142D01*
X145536573Y-91557142D02*
X145679430Y-91514285D01*
X145679430Y-91514285D02*
X146250859Y-90999999D01*
X146250859Y-90999999D02*
X146250859Y-91557142D01*
X145869906Y-91942856D02*
X145869906Y-92628571D01*
X146908478Y-77821429D02*
X146860859Y-77735715D01*
X146860859Y-77735715D02*
X146860859Y-77607143D01*
X146860859Y-77607143D02*
X146908478Y-77478572D01*
X146908478Y-77478572D02*
X147003716Y-77392857D01*
X147003716Y-77392857D02*
X147098954Y-77350000D01*
X147098954Y-77350000D02*
X147289430Y-77307143D01*
X147289430Y-77307143D02*
X147432287Y-77307143D01*
X147432287Y-77307143D02*
X147622763Y-77350000D01*
X147622763Y-77350000D02*
X147718001Y-77392857D01*
X147718001Y-77392857D02*
X147813240Y-77478572D01*
X147813240Y-77478572D02*
X147860859Y-77607143D01*
X147860859Y-77607143D02*
X147860859Y-77692857D01*
X147860859Y-77692857D02*
X147813240Y-77821429D01*
X147813240Y-77821429D02*
X147765620Y-77864286D01*
X147765620Y-77864286D02*
X147432287Y-77864286D01*
X147432287Y-77864286D02*
X147432287Y-77692857D01*
X147860859Y-78250000D02*
X146860859Y-78250000D01*
X146860859Y-78250000D02*
X146860859Y-78592857D01*
X146860859Y-78592857D02*
X146908478Y-78678572D01*
X146908478Y-78678572D02*
X146956097Y-78721429D01*
X146956097Y-78721429D02*
X147051335Y-78764286D01*
X147051335Y-78764286D02*
X147194192Y-78764286D01*
X147194192Y-78764286D02*
X147289430Y-78721429D01*
X147289430Y-78721429D02*
X147337049Y-78678572D01*
X147337049Y-78678572D02*
X147384668Y-78592857D01*
X147384668Y-78592857D02*
X147384668Y-78250000D01*
X147860859Y-79621429D02*
X147860859Y-79107143D01*
X147860859Y-79364286D02*
X146860859Y-79364286D01*
X146860859Y-79364286D02*
X147003716Y-79278572D01*
X147003716Y-79278572D02*
X147098954Y-79192857D01*
X147098954Y-79192857D02*
X147146573Y-79107143D01*
X147194192Y-80392858D02*
X147860859Y-80392858D01*
X146813240Y-80178572D02*
X147527525Y-79964286D01*
X147527525Y-79964286D02*
X147527525Y-80521429D01*
X147765620Y-80864286D02*
X147813240Y-80907143D01*
X147813240Y-80907143D02*
X147860859Y-80864286D01*
X147860859Y-80864286D02*
X147813240Y-80821429D01*
X147813240Y-80821429D02*
X147765620Y-80864286D01*
X147765620Y-80864286D02*
X147860859Y-80864286D01*
X147241811Y-80864286D02*
X147289430Y-80907143D01*
X147289430Y-80907143D02*
X147337049Y-80864286D01*
X147337049Y-80864286D02*
X147289430Y-80821429D01*
X147289430Y-80821429D02*
X147241811Y-80864286D01*
X147241811Y-80864286D02*
X147337049Y-80864286D01*
X147765620Y-82492857D02*
X147813240Y-82450000D01*
X147813240Y-82450000D02*
X147860859Y-82321428D01*
X147860859Y-82321428D02*
X147860859Y-82235714D01*
X147860859Y-82235714D02*
X147813240Y-82107143D01*
X147813240Y-82107143D02*
X147718001Y-82021428D01*
X147718001Y-82021428D02*
X147622763Y-81978571D01*
X147622763Y-81978571D02*
X147432287Y-81935714D01*
X147432287Y-81935714D02*
X147289430Y-81935714D01*
X147289430Y-81935714D02*
X147098954Y-81978571D01*
X147098954Y-81978571D02*
X147003716Y-82021428D01*
X147003716Y-82021428D02*
X146908478Y-82107143D01*
X146908478Y-82107143D02*
X146860859Y-82235714D01*
X146860859Y-82235714D02*
X146860859Y-82321428D01*
X146860859Y-82321428D02*
X146908478Y-82450000D01*
X146908478Y-82450000D02*
X146956097Y-82492857D01*
X147860859Y-82878571D02*
X146860859Y-82878571D01*
X147860859Y-83392857D02*
X147289430Y-83007143D01*
X146860859Y-83392857D02*
X147432287Y-82878571D01*
X147479906Y-83778571D02*
X147479906Y-84464286D01*
X147860859Y-84121428D02*
X147098954Y-84121428D01*
X146908478Y-86050000D02*
X146860859Y-85964286D01*
X146860859Y-85964286D02*
X146860859Y-85835714D01*
X146860859Y-85835714D02*
X146908478Y-85707143D01*
X146908478Y-85707143D02*
X147003716Y-85621428D01*
X147003716Y-85621428D02*
X147098954Y-85578571D01*
X147098954Y-85578571D02*
X147289430Y-85535714D01*
X147289430Y-85535714D02*
X147432287Y-85535714D01*
X147432287Y-85535714D02*
X147622763Y-85578571D01*
X147622763Y-85578571D02*
X147718001Y-85621428D01*
X147718001Y-85621428D02*
X147813240Y-85707143D01*
X147813240Y-85707143D02*
X147860859Y-85835714D01*
X147860859Y-85835714D02*
X147860859Y-85921428D01*
X147860859Y-85921428D02*
X147813240Y-86050000D01*
X147813240Y-86050000D02*
X147765620Y-86092857D01*
X147765620Y-86092857D02*
X147432287Y-86092857D01*
X147432287Y-86092857D02*
X147432287Y-85921428D01*
X147860859Y-86478571D02*
X146860859Y-86478571D01*
X146860859Y-86478571D02*
X146860859Y-86821428D01*
X146860859Y-86821428D02*
X146908478Y-86907143D01*
X146908478Y-86907143D02*
X146956097Y-86950000D01*
X146956097Y-86950000D02*
X147051335Y-86992857D01*
X147051335Y-86992857D02*
X147194192Y-86992857D01*
X147194192Y-86992857D02*
X147289430Y-86950000D01*
X147289430Y-86950000D02*
X147337049Y-86907143D01*
X147337049Y-86907143D02*
X147384668Y-86821428D01*
X147384668Y-86821428D02*
X147384668Y-86478571D01*
X147860859Y-87850000D02*
X147860859Y-87335714D01*
X147860859Y-87592857D02*
X146860859Y-87592857D01*
X146860859Y-87592857D02*
X147003716Y-87507143D01*
X147003716Y-87507143D02*
X147098954Y-87421428D01*
X147098954Y-87421428D02*
X147146573Y-87335714D01*
X147289430Y-88364286D02*
X147241811Y-88278571D01*
X147241811Y-88278571D02*
X147194192Y-88235714D01*
X147194192Y-88235714D02*
X147098954Y-88192857D01*
X147098954Y-88192857D02*
X147051335Y-88192857D01*
X147051335Y-88192857D02*
X146956097Y-88235714D01*
X146956097Y-88235714D02*
X146908478Y-88278571D01*
X146908478Y-88278571D02*
X146860859Y-88364286D01*
X146860859Y-88364286D02*
X146860859Y-88535714D01*
X146860859Y-88535714D02*
X146908478Y-88621429D01*
X146908478Y-88621429D02*
X146956097Y-88664286D01*
X146956097Y-88664286D02*
X147051335Y-88707143D01*
X147051335Y-88707143D02*
X147098954Y-88707143D01*
X147098954Y-88707143D02*
X147194192Y-88664286D01*
X147194192Y-88664286D02*
X147241811Y-88621429D01*
X147241811Y-88621429D02*
X147289430Y-88535714D01*
X147289430Y-88535714D02*
X147289430Y-88364286D01*
X147289430Y-88364286D02*
X147337049Y-88278571D01*
X147337049Y-88278571D02*
X147384668Y-88235714D01*
X147384668Y-88235714D02*
X147479906Y-88192857D01*
X147479906Y-88192857D02*
X147670382Y-88192857D01*
X147670382Y-88192857D02*
X147765620Y-88235714D01*
X147765620Y-88235714D02*
X147813240Y-88278571D01*
X147813240Y-88278571D02*
X147860859Y-88364286D01*
X147860859Y-88364286D02*
X147860859Y-88535714D01*
X147860859Y-88535714D02*
X147813240Y-88621429D01*
X147813240Y-88621429D02*
X147765620Y-88664286D01*
X147765620Y-88664286D02*
X147670382Y-88707143D01*
X147670382Y-88707143D02*
X147479906Y-88707143D01*
X147479906Y-88707143D02*
X147384668Y-88664286D01*
X147384668Y-88664286D02*
X147337049Y-88621429D01*
X147337049Y-88621429D02*
X147289430Y-88535714D01*
X147765620Y-89092857D02*
X147813240Y-89135714D01*
X147813240Y-89135714D02*
X147860859Y-89092857D01*
X147860859Y-89092857D02*
X147813240Y-89050000D01*
X147813240Y-89050000D02*
X147765620Y-89092857D01*
X147765620Y-89092857D02*
X147860859Y-89092857D01*
X147241811Y-89092857D02*
X147289430Y-89135714D01*
X147289430Y-89135714D02*
X147337049Y-89092857D01*
X147337049Y-89092857D02*
X147289430Y-89050000D01*
X147289430Y-89050000D02*
X147241811Y-89092857D01*
X147241811Y-89092857D02*
X147337049Y-89092857D01*
X147860859Y-90207142D02*
X146860859Y-90207142D01*
X146860859Y-90207142D02*
X146860859Y-90421428D01*
X146860859Y-90421428D02*
X146908478Y-90549999D01*
X146908478Y-90549999D02*
X147003716Y-90635714D01*
X147003716Y-90635714D02*
X147098954Y-90678571D01*
X147098954Y-90678571D02*
X147289430Y-90721428D01*
X147289430Y-90721428D02*
X147432287Y-90721428D01*
X147432287Y-90721428D02*
X147622763Y-90678571D01*
X147622763Y-90678571D02*
X147718001Y-90635714D01*
X147718001Y-90635714D02*
X147813240Y-90549999D01*
X147813240Y-90549999D02*
X147860859Y-90421428D01*
X147860859Y-90421428D02*
X147860859Y-90207142D01*
X147860859Y-91578571D02*
X147860859Y-91064285D01*
X147860859Y-91321428D02*
X146860859Y-91321428D01*
X146860859Y-91321428D02*
X147003716Y-91235714D01*
X147003716Y-91235714D02*
X147098954Y-91149999D01*
X147098954Y-91149999D02*
X147146573Y-91064285D01*
X147479906Y-91964285D02*
X147479906Y-92650000D01*
X147860859Y-92307142D02*
X147098954Y-92307142D01*
X148518478Y-77821429D02*
X148470859Y-77735715D01*
X148470859Y-77735715D02*
X148470859Y-77607143D01*
X148470859Y-77607143D02*
X148518478Y-77478572D01*
X148518478Y-77478572D02*
X148613716Y-77392857D01*
X148613716Y-77392857D02*
X148708954Y-77350000D01*
X148708954Y-77350000D02*
X148899430Y-77307143D01*
X148899430Y-77307143D02*
X149042287Y-77307143D01*
X149042287Y-77307143D02*
X149232763Y-77350000D01*
X149232763Y-77350000D02*
X149328001Y-77392857D01*
X149328001Y-77392857D02*
X149423240Y-77478572D01*
X149423240Y-77478572D02*
X149470859Y-77607143D01*
X149470859Y-77607143D02*
X149470859Y-77692857D01*
X149470859Y-77692857D02*
X149423240Y-77821429D01*
X149423240Y-77821429D02*
X149375620Y-77864286D01*
X149375620Y-77864286D02*
X149042287Y-77864286D01*
X149042287Y-77864286D02*
X149042287Y-77692857D01*
X149470859Y-78250000D02*
X148470859Y-78250000D01*
X148470859Y-78250000D02*
X148470859Y-78592857D01*
X148470859Y-78592857D02*
X148518478Y-78678572D01*
X148518478Y-78678572D02*
X148566097Y-78721429D01*
X148566097Y-78721429D02*
X148661335Y-78764286D01*
X148661335Y-78764286D02*
X148804192Y-78764286D01*
X148804192Y-78764286D02*
X148899430Y-78721429D01*
X148899430Y-78721429D02*
X148947049Y-78678572D01*
X148947049Y-78678572D02*
X148994668Y-78592857D01*
X148994668Y-78592857D02*
X148994668Y-78250000D01*
X149470859Y-79621429D02*
X149470859Y-79107143D01*
X149470859Y-79364286D02*
X148470859Y-79364286D01*
X148470859Y-79364286D02*
X148613716Y-79278572D01*
X148613716Y-79278572D02*
X148708954Y-79192857D01*
X148708954Y-79192857D02*
X148756573Y-79107143D01*
X148470859Y-80435715D02*
X148470859Y-80007143D01*
X148470859Y-80007143D02*
X148947049Y-79964286D01*
X148947049Y-79964286D02*
X148899430Y-80007143D01*
X148899430Y-80007143D02*
X148851811Y-80092858D01*
X148851811Y-80092858D02*
X148851811Y-80307143D01*
X148851811Y-80307143D02*
X148899430Y-80392858D01*
X148899430Y-80392858D02*
X148947049Y-80435715D01*
X148947049Y-80435715D02*
X149042287Y-80478572D01*
X149042287Y-80478572D02*
X149280382Y-80478572D01*
X149280382Y-80478572D02*
X149375620Y-80435715D01*
X149375620Y-80435715D02*
X149423240Y-80392858D01*
X149423240Y-80392858D02*
X149470859Y-80307143D01*
X149470859Y-80307143D02*
X149470859Y-80092858D01*
X149470859Y-80092858D02*
X149423240Y-80007143D01*
X149423240Y-80007143D02*
X149375620Y-79964286D01*
X149375620Y-80864286D02*
X149423240Y-80907143D01*
X149423240Y-80907143D02*
X149470859Y-80864286D01*
X149470859Y-80864286D02*
X149423240Y-80821429D01*
X149423240Y-80821429D02*
X149375620Y-80864286D01*
X149375620Y-80864286D02*
X149470859Y-80864286D01*
X148851811Y-80864286D02*
X148899430Y-80907143D01*
X148899430Y-80907143D02*
X148947049Y-80864286D01*
X148947049Y-80864286D02*
X148899430Y-80821429D01*
X148899430Y-80821429D02*
X148851811Y-80864286D01*
X148851811Y-80864286D02*
X148947049Y-80864286D01*
X149375620Y-82492857D02*
X149423240Y-82450000D01*
X149423240Y-82450000D02*
X149470859Y-82321428D01*
X149470859Y-82321428D02*
X149470859Y-82235714D01*
X149470859Y-82235714D02*
X149423240Y-82107143D01*
X149423240Y-82107143D02*
X149328001Y-82021428D01*
X149328001Y-82021428D02*
X149232763Y-81978571D01*
X149232763Y-81978571D02*
X149042287Y-81935714D01*
X149042287Y-81935714D02*
X148899430Y-81935714D01*
X148899430Y-81935714D02*
X148708954Y-81978571D01*
X148708954Y-81978571D02*
X148613716Y-82021428D01*
X148613716Y-82021428D02*
X148518478Y-82107143D01*
X148518478Y-82107143D02*
X148470859Y-82235714D01*
X148470859Y-82235714D02*
X148470859Y-82321428D01*
X148470859Y-82321428D02*
X148518478Y-82450000D01*
X148518478Y-82450000D02*
X148566097Y-82492857D01*
X149470859Y-82878571D02*
X148470859Y-82878571D01*
X149470859Y-83392857D02*
X148899430Y-83007143D01*
X148470859Y-83392857D02*
X149042287Y-82878571D01*
X149089906Y-83778571D02*
X149089906Y-84464286D01*
X148518478Y-86050000D02*
X148470859Y-85964286D01*
X148470859Y-85964286D02*
X148470859Y-85835714D01*
X148470859Y-85835714D02*
X148518478Y-85707143D01*
X148518478Y-85707143D02*
X148613716Y-85621428D01*
X148613716Y-85621428D02*
X148708954Y-85578571D01*
X148708954Y-85578571D02*
X148899430Y-85535714D01*
X148899430Y-85535714D02*
X149042287Y-85535714D01*
X149042287Y-85535714D02*
X149232763Y-85578571D01*
X149232763Y-85578571D02*
X149328001Y-85621428D01*
X149328001Y-85621428D02*
X149423240Y-85707143D01*
X149423240Y-85707143D02*
X149470859Y-85835714D01*
X149470859Y-85835714D02*
X149470859Y-85921428D01*
X149470859Y-85921428D02*
X149423240Y-86050000D01*
X149423240Y-86050000D02*
X149375620Y-86092857D01*
X149375620Y-86092857D02*
X149042287Y-86092857D01*
X149042287Y-86092857D02*
X149042287Y-85921428D01*
X149470859Y-86478571D02*
X148470859Y-86478571D01*
X148470859Y-86478571D02*
X148470859Y-86821428D01*
X148470859Y-86821428D02*
X148518478Y-86907143D01*
X148518478Y-86907143D02*
X148566097Y-86950000D01*
X148566097Y-86950000D02*
X148661335Y-86992857D01*
X148661335Y-86992857D02*
X148804192Y-86992857D01*
X148804192Y-86992857D02*
X148899430Y-86950000D01*
X148899430Y-86950000D02*
X148947049Y-86907143D01*
X148947049Y-86907143D02*
X148994668Y-86821428D01*
X148994668Y-86821428D02*
X148994668Y-86478571D01*
X149470859Y-87850000D02*
X149470859Y-87335714D01*
X149470859Y-87592857D02*
X148470859Y-87592857D01*
X148470859Y-87592857D02*
X148613716Y-87507143D01*
X148613716Y-87507143D02*
X148708954Y-87421428D01*
X148708954Y-87421428D02*
X148756573Y-87335714D01*
X149470859Y-88278571D02*
X149470859Y-88450000D01*
X149470859Y-88450000D02*
X149423240Y-88535714D01*
X149423240Y-88535714D02*
X149375620Y-88578571D01*
X149375620Y-88578571D02*
X149232763Y-88664286D01*
X149232763Y-88664286D02*
X149042287Y-88707143D01*
X149042287Y-88707143D02*
X148661335Y-88707143D01*
X148661335Y-88707143D02*
X148566097Y-88664286D01*
X148566097Y-88664286D02*
X148518478Y-88621429D01*
X148518478Y-88621429D02*
X148470859Y-88535714D01*
X148470859Y-88535714D02*
X148470859Y-88364286D01*
X148470859Y-88364286D02*
X148518478Y-88278571D01*
X148518478Y-88278571D02*
X148566097Y-88235714D01*
X148566097Y-88235714D02*
X148661335Y-88192857D01*
X148661335Y-88192857D02*
X148899430Y-88192857D01*
X148899430Y-88192857D02*
X148994668Y-88235714D01*
X148994668Y-88235714D02*
X149042287Y-88278571D01*
X149042287Y-88278571D02*
X149089906Y-88364286D01*
X149089906Y-88364286D02*
X149089906Y-88535714D01*
X149089906Y-88535714D02*
X149042287Y-88621429D01*
X149042287Y-88621429D02*
X148994668Y-88664286D01*
X148994668Y-88664286D02*
X148899430Y-88707143D01*
X149375620Y-89092857D02*
X149423240Y-89135714D01*
X149423240Y-89135714D02*
X149470859Y-89092857D01*
X149470859Y-89092857D02*
X149423240Y-89050000D01*
X149423240Y-89050000D02*
X149375620Y-89092857D01*
X149375620Y-89092857D02*
X149470859Y-89092857D01*
X148851811Y-89092857D02*
X148899430Y-89135714D01*
X148899430Y-89135714D02*
X148947049Y-89092857D01*
X148947049Y-89092857D02*
X148899430Y-89050000D01*
X148899430Y-89050000D02*
X148851811Y-89092857D01*
X148851811Y-89092857D02*
X148947049Y-89092857D01*
X149470859Y-90207142D02*
X148470859Y-90207142D01*
X148470859Y-90207142D02*
X148470859Y-90421428D01*
X148470859Y-90421428D02*
X148518478Y-90549999D01*
X148518478Y-90549999D02*
X148613716Y-90635714D01*
X148613716Y-90635714D02*
X148708954Y-90678571D01*
X148708954Y-90678571D02*
X148899430Y-90721428D01*
X148899430Y-90721428D02*
X149042287Y-90721428D01*
X149042287Y-90721428D02*
X149232763Y-90678571D01*
X149232763Y-90678571D02*
X149328001Y-90635714D01*
X149328001Y-90635714D02*
X149423240Y-90549999D01*
X149423240Y-90549999D02*
X149470859Y-90421428D01*
X149470859Y-90421428D02*
X149470859Y-90207142D01*
X149470859Y-91578571D02*
X149470859Y-91064285D01*
X149470859Y-91321428D02*
X148470859Y-91321428D01*
X148470859Y-91321428D02*
X148613716Y-91235714D01*
X148613716Y-91235714D02*
X148708954Y-91149999D01*
X148708954Y-91149999D02*
X148756573Y-91064285D01*
X149089906Y-91964285D02*
X149089906Y-92650000D01*
M02*
