%TF.GenerationSoftware,KiCad,Pcbnew,7.0.10*%
%TF.CreationDate,2024-02-18T21:52:23+13:00*%
%TF.ProjectId,dvi-sock,6476692d-736f-4636-9b2e-6b696361645f,rev?*%
%TF.SameCoordinates,Original*%
%TF.FileFunction,Soldermask,Top*%
%TF.FilePolarity,Negative*%
%FSLAX46Y46*%
G04 Gerber Fmt 4.6, Leading zero omitted, Abs format (unit mm)*
G04 Created by KiCad (PCBNEW 7.0.10) date 2024-02-18 21:52:23*
%MOMM*%
%LPD*%
G01*
G04 APERTURE LIST*
G04 Aperture macros list*
%AMRoundRect*
0 Rectangle with rounded corners*
0 $1 Rounding radius*
0 $2 $3 $4 $5 $6 $7 $8 $9 X,Y pos of 4 corners*
0 Add a 4 corners polygon primitive as box body*
4,1,4,$2,$3,$4,$5,$6,$7,$8,$9,$2,$3,0*
0 Add four circle primitives for the rounded corners*
1,1,$1+$1,$2,$3*
1,1,$1+$1,$4,$5*
1,1,$1+$1,$6,$7*
1,1,$1+$1,$8,$9*
0 Add four rect primitives between the rounded corners*
20,1,$1+$1,$2,$3,$4,$5,0*
20,1,$1+$1,$4,$5,$6,$7,0*
20,1,$1+$1,$6,$7,$8,$9,0*
20,1,$1+$1,$8,$9,$2,$3,0*%
G04 Aperture macros list end*
%ADD10R,4.600000X0.530000*%
%ADD11RoundRect,0.135000X-0.226274X-0.035355X-0.035355X-0.226274X0.226274X0.035355X0.035355X0.226274X0*%
%ADD12R,1.700000X1.700000*%
%ADD13O,1.700000X1.700000*%
%ADD14RoundRect,0.381000X-0.381000X-1.019000X0.381000X-1.019000X0.381000X1.019000X-0.381000X1.019000X0*%
%ADD15C,0.700000*%
%ADD16RoundRect,0.135000X0.185000X-0.135000X0.185000X0.135000X-0.185000X0.135000X-0.185000X-0.135000X0*%
%ADD17RoundRect,0.135000X0.035355X-0.226274X0.226274X-0.035355X-0.035355X0.226274X-0.226274X0.035355X0*%
%ADD18RoundRect,0.381000X0.381000X1.019000X-0.381000X1.019000X-0.381000X-1.019000X0.381000X-1.019000X0*%
%ADD19RoundRect,0.381000X1.019000X-0.381000X1.019000X0.381000X-1.019000X0.381000X-1.019000X-0.381000X0*%
G04 APERTURE END LIST*
D10*
%TO.C,U1*%
X164426455Y-89024222D03*
X164426455Y-87964222D03*
X164426455Y-86994222D03*
X164426455Y-86024222D03*
X164426455Y-85054222D03*
X164426455Y-84084222D03*
X164426455Y-83114222D03*
X164426455Y-82144222D03*
X164426455Y-81174222D03*
X164426455Y-80204222D03*
%TD*%
D11*
%TO.C,R2*%
X156039376Y-79439376D03*
X156760624Y-80160624D03*
%TD*%
D12*
%TO.C,J5*%
X156170212Y-93667214D03*
D13*
X158710212Y-93667214D03*
%TD*%
D14*
%TO.C,J1*%
X142840000Y-94600000D03*
D15*
X142840000Y-95500000D03*
D14*
X145380000Y-94600000D03*
D15*
X145380000Y-95500000D03*
D14*
X147920000Y-94600000D03*
D15*
X147920000Y-95500000D03*
D14*
X150460000Y-94600000D03*
D15*
X150460000Y-95500000D03*
D14*
X153000000Y-94600000D03*
D15*
X153000000Y-95500000D03*
%TD*%
D16*
%TO.C,R8*%
X157250000Y-87810000D03*
X157250000Y-86790000D03*
%TD*%
D17*
%TO.C,R6*%
X156139376Y-84860624D03*
X156860624Y-84139376D03*
%TD*%
D11*
%TO.C,R1*%
X156739376Y-78739376D03*
X157460624Y-79460624D03*
%TD*%
D16*
%TO.C,R7*%
X156300000Y-87810000D03*
X156300000Y-86790000D03*
%TD*%
D11*
%TO.C,R3*%
X156039376Y-80789376D03*
X156760624Y-81510624D03*
%TD*%
D18*
%TO.C,J2*%
X153000000Y-75400000D03*
D15*
X153000000Y-74500000D03*
D18*
X150460000Y-75400000D03*
D15*
X150460000Y-74500000D03*
D18*
X147920000Y-75400000D03*
D15*
X147920000Y-74500000D03*
D18*
X145380000Y-75400000D03*
D15*
X145380000Y-74500000D03*
D18*
X142840000Y-75400000D03*
D15*
X142840000Y-74500000D03*
%TD*%
D19*
%TO.C,J3*%
X153500000Y-87540000D03*
D15*
X154400000Y-87540000D03*
D19*
X153500000Y-85000000D03*
D15*
X154400000Y-85000000D03*
D19*
X153500000Y-82460000D03*
D15*
X154400000Y-82460000D03*
%TD*%
D17*
%TO.C,R5*%
X155439376Y-84160624D03*
X156160624Y-83439376D03*
%TD*%
D11*
%TO.C,R4*%
X155339376Y-81489376D03*
X156060624Y-82210624D03*
%TD*%
M02*
