M48
; DRILL file {KiCad 7.0.10} date Sunday, February 18, 2024 at 09:52:26 PM
; FORMAT={-:-/ absolute / inch / decimal}
; #@! TF.CreationDate,2024-02-18T21:52:26+13:00
; #@! TF.GenerationSoftware,Kicad,Pcbnew,7.0.10
; #@! TF.FileFunction,Plated,1,2,PTH
FMAT,2
INCH
; #@! TA.AperFunction,Plated,PTH,ViaDrill
T1C0.0118
; #@! TA.AperFunction,Plated,PTH,ComponentDrill
T2C0.0157
; #@! TA.AperFunction,Plated,PTH,ComponentDrill
T3C0.0394
%
G90
G05
T1
X5.6024Y-3.3465
X5.6402Y-3.0461
X5.6417Y-3.6417
X5.7047Y-3.6417
X5.7083Y-3.0453
X5.9429Y-3.0488
X5.9429Y-3.6445
X6.0079Y-3.6457
X6.0106Y-3.0425
X6.0827Y-3.2953
X6.0827Y-3.3976
X6.0827Y-3.4961
X6.0866Y-3.1969
X6.0945Y-2.9232
X6.1004Y-3.7717
X6.1122Y-3.1339
X6.1161Y-3.252
X6.1421Y-3.5224
X6.198Y-3.1701
X6.1988Y-3.2382
X6.2008Y-3.2972
X6.2008Y-3.3583
X6.2024Y-3.5335
X6.2244Y-3.7717
X6.2283Y-2.9232
X6.2378Y-3.1346
X6.2576Y-3.3754
X6.3132Y-3.2139
X6.3207Y-3.2554
X6.3288Y-3.3324
T2
X5.6236Y-2.9331
X5.6236Y-3.7598
X5.7236Y-2.9331
X5.7236Y-3.7598
X5.8236Y-2.9331
X5.8236Y-3.7598
X5.9236Y-2.9331
X5.9236Y-3.7598
X6.0236Y-2.9331
X6.0236Y-3.7598
X6.0787Y-3.2465
X6.0787Y-3.3465
X6.0787Y-3.4465
T3
X5.6236Y-2.9961
X5.6236Y-3.6969
X5.7236Y-2.9961
X5.7236Y-3.6969
X5.8236Y-2.9961
X5.8236Y-3.6969
X5.9236Y-2.9961
X5.9236Y-3.6969
X6.0157Y-3.2465
X6.0157Y-3.3465
X6.0157Y-3.4465
X6.0236Y-2.9961
X6.0236Y-3.6969
X6.1484Y-3.6877
X6.2484Y-3.6877
M30
